<svg width="6" height="8" viewBox="0 0 6 8" fill="none" xmlns="http://www.w3.org/2000/svg">
<mask id="path-1-outside-1_217_4" maskUnits="userSpaceOnUse" x="-3" y="-2" width="11" height="12" fill="black">
<rect fill="white" x="-3" y="-2" width="11" height="12"/>
<path d="M2.1291 1.43C2.58243 1.06333 2.8991 0.88 3.0791 0.88C3.26577 0.88 3.5591 1.05667 3.9591 1.41C4.36577 1.75667 4.6191 2.00333 4.7191 2.15C4.8191 2.29 4.8691 2.52333 4.8691 2.85C4.8691 3.17667 4.8191 3.42333 4.7191 3.59C4.6191 3.75 4.43577 3.95667 4.1691 4.21C4.5891 4.55667 4.88577 4.84667 5.0591 5.08C5.13244 5.2 5.1691 5.42667 5.1691 5.76C5.1691 6.08667 5.13244 6.3 5.0591 6.4C4.9391 6.66 4.6491 6.99333 4.1891 7.4C3.7291 7.8 3.36577 8 3.0991 8H1.0291V3.72C1.0291 3.18 0.989102 2.8 0.909102 2.58C0.835768 2.36 0.675768 2.1 0.429102 1.8L1.7491 0.88C1.9091 1.01333 2.03577 1.19667 2.1291 1.43ZM2.4091 4.96V6.79H3.0991C3.18577 6.79 3.29244 6.72333 3.4191 6.59C3.54577 6.45 3.63577 6.33 3.6891 6.23C3.7491 6.12333 3.7791 5.91 3.7791 5.59C3.7791 5.37 3.61244 5.16 3.2791 4.96H2.4091ZM2.4091 3.14V3.85H2.9191C2.99243 3.85 3.08244 3.78667 3.1891 3.66C3.30243 3.52667 3.3791 3.41 3.4191 3.31C3.4591 3.21 3.4791 3.09 3.4791 2.95C3.4791 2.81 3.41244 2.65333 3.2791 2.48C3.14577 2.3 3.02243 2.21 2.9091 2.21C2.79577 2.21 2.6191 2.25333 2.3791 2.34C2.3991 2.6 2.4091 2.86667 2.4091 3.14Z"/>
</mask>
<path d="M2.1291 1.43C2.58243 1.06333 2.8991 0.88 3.0791 0.88C3.26577 0.88 3.5591 1.05667 3.9591 1.41C4.36577 1.75667 4.6191 2.00333 4.7191 2.15C4.8191 2.29 4.8691 2.52333 4.8691 2.85C4.8691 3.17667 4.8191 3.42333 4.7191 3.59C4.6191 3.75 4.43577 3.95667 4.1691 4.21C4.5891 4.55667 4.88577 4.84667 5.0591 5.08C5.13244 5.2 5.1691 5.42667 5.1691 5.76C5.1691 6.08667 5.13244 6.3 5.0591 6.4C4.9391 6.66 4.6491 6.99333 4.1891 7.4C3.7291 7.8 3.36577 8 3.0991 8H1.0291V3.72C1.0291 3.18 0.989102 2.8 0.909102 2.58C0.835768 2.36 0.675768 2.1 0.429102 1.8L1.7491 0.88C1.9091 1.01333 2.03577 1.19667 2.1291 1.43ZM2.4091 4.96V6.79H3.0991C3.18577 6.79 3.29244 6.72333 3.4191 6.59C3.54577 6.45 3.63577 6.33 3.6891 6.23C3.7491 6.12333 3.7791 5.91 3.7791 5.59C3.7791 5.37 3.61244 5.16 3.2791 4.96H2.4091ZM2.4091 3.14V3.85H2.9191C2.99243 3.85 3.08244 3.78667 3.1891 3.66C3.30243 3.52667 3.3791 3.41 3.4191 3.31C3.4591 3.21 3.4791 3.09 3.4791 2.95C3.4791 2.81 3.41244 2.65333 3.2791 2.48C3.14577 2.3 3.02243 2.21 2.9091 2.21C2.79577 2.21 2.6191 2.25333 2.3791 2.34C2.3991 2.6 2.4091 2.86667 2.4091 3.14Z" fill="#1AE4B6"/>
<path d="M2.1291 1.43L0.272148 2.17278L1.27899 4.6899L3.38684 2.98502L2.1291 1.43ZM3.9591 1.41L2.63503 2.90895L2.64823 2.92061L2.66163 2.93203L3.9591 1.41ZM4.7191 2.15L3.06665 3.27667L3.07894 3.29471L3.09163 3.31248L4.7191 2.15ZM4.7191 3.59L6.4151 4.65L6.42473 4.63458L6.43409 4.61899L4.7191 3.59ZM4.1691 4.21L2.7916 2.76L1.15462 4.31514L2.89597 5.75245L4.1691 4.21ZM5.0591 5.08L6.76567 4.0371L6.71851 3.95994L6.66459 3.88735L5.0591 5.08ZM5.0591 6.4L3.44629 5.21727L3.32742 5.37937L3.24318 5.56188L5.0591 6.4ZM4.1891 7.4L5.50146 8.90921L5.50764 8.90383L5.51378 8.89841L4.1891 7.4ZM1.0291 8H-0.970898V10H1.0291V8ZM0.909102 2.58L-0.988265 3.21246L-0.97972 3.23809L-0.970486 3.26348L0.909102 2.58ZM0.429102 1.8L-0.714484 0.159204L-2.49112 1.39746L-1.11575 3.07021L0.429102 1.8ZM1.7491 0.88L3.02947 -0.656443L1.8573 -1.63325L0.605516 -0.760796L1.7491 0.88ZM2.4091 4.96V2.96H0.409102V4.96H2.4091ZM2.4091 6.79H0.409102V8.79H2.4091V6.79ZM3.4191 6.59L4.8691 7.9675L4.88585 7.94986L4.90217 7.93183L3.4191 6.59ZM3.6891 6.23L1.94595 5.24948L1.93495 5.26903L1.9244 5.28882L3.6891 6.23ZM3.2791 4.96L4.30809 3.24501L3.83307 2.96H3.2791V4.96ZM2.4091 3.85H0.409102V5.85H2.4091V3.85ZM3.1891 3.66L1.66521 2.36469L1.65928 2.37173L3.1891 3.66ZM3.4191 3.31L5.27605 4.05278L5.27605 4.05278L3.4191 3.31ZM3.2791 2.48L1.67199 3.67045L1.68279 3.68504L1.69385 3.69942L3.2791 2.48ZM2.3791 2.34L1.69981 0.458892L0.268259 0.975842L0.384993 2.49339L2.3791 2.34ZM3.38684 2.98502C3.47595 2.91295 3.54858 2.85782 3.60595 2.81684C3.66452 2.77501 3.69779 2.75465 3.70867 2.74835C3.72346 2.73979 3.68789 2.76227 3.61105 2.79063C3.5705 2.8056 3.50691 2.82651 3.42373 2.84431C3.34139 2.86193 3.22367 2.88 3.0791 2.88V-1.12C2.42844 -1.12 1.91274 -0.833898 1.70453 -0.713353C1.42006 -0.548658 1.13731 -0.340129 0.871363 -0.125022L3.38684 2.98502ZM3.0791 2.88C2.8206 2.88 2.6333 2.82132 2.5483 2.79003C2.4576 2.75665 2.4083 2.7264 2.40725 2.72577C2.40307 2.72325 2.42138 2.73411 2.46449 2.76706C2.50645 2.79914 2.56297 2.84529 2.63503 2.90895L5.28317 -0.0889472C5.03665 -0.306706 4.76189 -0.525545 4.47095 -0.700766C4.23451 -0.843168 3.72856 -1.12 3.0791 -1.12V2.88ZM2.66163 2.93203C2.84647 3.0896 2.97536 3.20664 3.05887 3.28794C3.10016 3.32815 3.12112 3.35067 3.12751 3.35778C3.13796 3.36942 3.10962 3.3397 3.06665 3.27667L6.37156 1.02333C6.09518 0.617967 5.62701 0.203753 5.25657 -0.112031L2.66163 2.93203ZM3.09163 3.31248C2.93363 3.09127 2.88761 2.90326 2.876 2.84906C2.86294 2.78811 2.8691 2.77985 2.8691 2.85H6.8691C6.8691 2.42616 6.82489 1.65718 6.34657 0.987523L3.09163 3.31248ZM2.8691 2.85C2.8691 2.91701 2.86348 2.92207 2.87147 2.88267C2.87903 2.84536 2.9083 2.7207 3.00412 2.56101L6.43409 4.61899C6.8078 3.99613 6.8691 3.3204 6.8691 2.85H2.8691ZM3.0231 2.53C3.05242 2.4831 3.05881 2.48325 3.01045 2.53777C2.96656 2.58725 2.89624 2.66059 2.7916 2.76L5.5466 5.66C5.84311 5.37832 6.177 5.03096 6.4151 4.65L3.0231 2.53ZM2.89597 5.75245C3.07526 5.90043 3.21038 6.02173 3.30855 6.11769C3.35705 6.1651 3.39276 6.20266 3.41798 6.23073C3.44361 6.25927 3.45389 6.27302 3.45361 6.27265L6.66459 3.88735C6.34484 3.45692 5.89863 3.04426 5.44223 2.66755L2.89597 5.75245ZM3.35254 6.1229C3.26657 5.98223 3.22246 5.86287 3.20089 5.79489C3.17851 5.72435 3.16989 5.67557 3.16727 5.65938C3.16278 5.63161 3.1691 5.65705 3.1691 5.76H7.1691C7.1691 5.52961 7.15709 5.27505 7.11594 5.02062C7.07909 4.79282 6.99654 4.41489 6.76567 4.0371L3.35254 6.1229ZM3.1691 5.76C3.1691 5.86081 3.16255 5.87247 3.1705 5.82622C3.17491 5.80058 3.18774 5.73354 3.22014 5.64126C3.25105 5.5532 3.31621 5.39465 3.44629 5.21727L6.67191 7.58273C6.98111 7.16109 7.07553 6.72004 7.1127 6.50378C7.15732 6.24419 7.1691 5.98586 7.1691 5.76H3.1691ZM3.24318 5.56188C3.2581 5.52956 3.27091 5.50633 3.27895 5.49255C3.28308 5.48547 3.28633 5.48025 3.28846 5.47692C3.2906 5.47358 3.29179 5.47185 3.29184 5.47177C3.2919 5.47169 3.29099 5.47301 3.28895 5.47577C3.28691 5.47853 3.28388 5.48253 3.27975 5.48779C3.27138 5.49844 3.25927 5.51324 3.24272 5.53227C3.17221 5.61331 3.05217 5.73561 2.86442 5.90159L5.51378 8.89841C5.9975 8.47077 6.56753 7.90434 6.87502 7.23812L3.24318 5.56188ZM2.87674 5.89079C2.7969 5.96022 2.73297 6.01071 2.68433 6.04616C2.63489 6.08219 2.60963 6.09654 2.60715 6.09791C2.60322 6.10007 2.63955 6.07927 2.71207 6.05625C2.78417 6.03336 2.91814 6 3.0991 6V10C3.70656 10 4.20808 9.78263 4.53606 9.60209C4.88511 9.40996 5.20939 9.16318 5.50146 8.90921L2.87674 5.89079ZM3.0991 6H1.0291V10H3.0991V6ZM3.0291 8V3.72H-0.970898V8H3.0291ZM3.0291 3.72C3.0291 3.17207 2.99993 2.47744 2.78869 1.89651L-0.970486 3.26348C-0.98267 3.22998 -0.990039 3.20468 -0.994005 3.18995C-0.996066 3.18229 -0.997463 3.17654 -0.998312 3.17288C-0.999163 3.16922 -0.999549 3.16728 -0.99956 3.16723C-0.999572 3.16717 -0.999268 3.16869 -0.998715 3.17191C-0.998163 3.17512 -0.997405 3.17978 -0.996492 3.18599C-0.994643 3.19856 -0.992351 3.21618 -0.989909 3.23937C-0.979528 3.338 -0.970898 3.49388 -0.970898 3.72H3.0291ZM2.80647 1.94754C2.62068 1.39018 2.28563 0.908852 1.97395 0.529788L-1.11575 3.07021C-1.0355 3.16782 -0.990724 3.23324 -0.969215 3.26819C-0.945928 3.30604 -0.963936 3.28544 -0.988265 3.21246L2.80647 1.94754ZM1.57269 3.4408L2.89269 2.5208L0.605516 -0.760796L-0.714484 0.159204L1.57269 3.4408ZM0.468734 2.41644C0.325932 2.29744 0.276817 2.18445 0.272148 2.17278L3.98606 0.687219C3.79472 0.20888 3.49227 -0.270775 3.02947 -0.656443L0.468734 2.41644ZM0.409102 4.96V6.79H4.4091V4.96H0.409102ZM2.4091 8.79H3.0991V4.79H2.4091V8.79ZM3.0991 8.79C3.65011 8.79 4.06838 8.58332 4.3041 8.436C4.54951 8.28262 4.73792 8.10559 4.8691 7.9675L1.9691 5.2125C1.97362 5.20775 2.04536 5.13072 2.1841 5.044C2.31316 4.96334 2.63476 4.79 3.0991 4.79V8.79ZM4.90217 7.93183C5.07633 7.73934 5.28928 7.47966 5.45381 7.17118L1.9244 5.28882C1.9424 5.25507 1.95743 5.23091 1.9665 5.21699C1.97572 5.20283 1.98131 5.19539 1.9816 5.195C1.98199 5.19448 1.97871 5.19887 1.97078 5.20838C1.96292 5.21782 1.95154 5.23103 1.93603 5.24817L4.90217 7.93183ZM5.43225 7.21052C5.64391 6.83424 5.70971 6.46339 5.73711 6.26851C5.76968 6.03694 5.7791 5.80309 5.7791 5.59H1.7791C1.7791 5.69691 1.77352 5.72973 1.77609 5.71149C1.77764 5.70049 1.78427 5.65573 1.80317 5.58851C1.82076 5.52599 1.86089 5.4007 1.94595 5.24948L5.43225 7.21052ZM5.7791 5.59C5.7791 4.25781 4.78031 3.52835 4.30809 3.24501L2.25011 6.67499C2.29534 6.70212 2.20463 6.65837 2.08752 6.51082C1.95344 6.34186 1.7791 6.02366 1.7791 5.59H5.7791ZM3.2791 2.96H2.4091V6.96H3.2791V2.96ZM0.409102 3.14V3.85H4.4091V3.14H0.409102ZM2.4091 5.85H2.9191V1.85H2.4091V5.85ZM2.9191 5.85C3.52705 5.85 3.9698 5.59489 4.19259 5.43811C4.42989 5.27112 4.60454 5.08411 4.71892 4.94827L1.65928 2.37173C1.667 2.36256 1.74331 2.27055 1.89062 2.16689C2.0234 2.07344 2.38448 1.85 2.9191 1.85V5.85ZM4.71298 4.9553C4.89039 4.74658 5.1213 4.43968 5.27605 4.05278L1.56215 2.56722C1.60403 2.46252 1.64528 2.39683 1.66019 2.37414C1.67655 2.34925 1.68139 2.34569 1.66522 2.3647L4.71298 4.9553ZM5.27605 4.05278C5.43422 3.65737 5.4791 3.27183 5.4791 2.95H1.4791C1.4791 2.90817 1.48399 2.76263 1.56215 2.56722L5.27605 4.05278ZM5.4791 2.95C5.4791 2.18229 5.12484 1.59922 4.86435 1.26058L1.69385 3.69942C1.685 3.68791 1.63734 3.62469 1.58879 3.51061C1.53897 3.39353 1.4791 3.2006 1.4791 2.95H5.4791ZM4.88622 1.28954C4.71268 1.05527 4.06366 0.209999 2.9091 0.209999V4.21C2.41685 4.21 2.07111 4.01235 1.90766 3.89308C1.74895 3.77726 1.67496 3.67447 1.67199 3.67045L4.88622 1.28954ZM2.9091 0.209999C2.41718 0.209999 1.95361 0.367244 1.69981 0.458892L3.05839 4.22111C3.13611 4.19304 3.16949 4.18457 3.16805 4.18492C3.16604 4.18541 3.14474 4.19064 3.1078 4.19616C3.07297 4.20137 3.0035 4.21 2.9091 4.21V0.209999ZM0.384993 2.49339C0.400884 2.69998 0.409102 2.91541 0.409102 3.14H4.4091C4.4091 2.81792 4.39732 2.50002 4.37321 2.18661L0.384993 2.49339Z" fill="black" mask="url(#path-1-outside-1_217_4)"/>
</svg>
