<svg width="6" height="8" viewBox="0 0 6 8" fill="none" xmlns="http://www.w3.org/2000/svg">
<mask id="path-1-outside-1_217_4" maskUnits="userSpaceOnUse" x="-1" y="0" width="7" height="9" fill="black">
<rect fill="white" x="-1" width="7" height="9"/>
<path d="M2.1291 1.43C2.58243 1.06333 2.8991 0.88 3.0791 0.88C3.26577 0.88 3.5591 1.05667 3.9591 1.41C4.36577 1.75667 4.6191 2.00333 4.7191 2.15C4.8191 2.29 4.8691 2.52333 4.8691 2.85C4.8691 3.17667 4.8191 3.42333 4.7191 3.59C4.6191 3.75 4.43577 3.95667 4.1691 4.21C4.5891 4.55667 4.88577 4.84667 5.0591 5.08C5.13244 5.2 5.1691 5.42667 5.1691 5.76C5.1691 6.08667 5.13244 6.3 5.0591 6.4C4.9391 6.66 4.6491 6.99333 4.1891 7.4C3.7291 7.8 3.36577 8 3.0991 8H1.0291V3.72C1.0291 3.18 0.989102 2.8 0.909102 2.58C0.835768 2.36 0.675768 2.1 0.429102 1.8L1.7491 0.88C1.9091 1.01333 2.03577 1.19667 2.1291 1.43ZM2.4091 4.96V6.79H3.0991C3.18577 6.79 3.29244 6.72333 3.4191 6.59C3.54577 6.45 3.63577 6.33 3.6891 6.23C3.7491 6.12333 3.7791 5.91 3.7791 5.59C3.7791 5.37 3.61244 5.16 3.2791 4.96H2.4091ZM2.4091 3.14V3.85H2.9191C2.99243 3.85 3.08244 3.78667 3.1891 3.66C3.30243 3.52667 3.3791 3.41 3.4191 3.31C3.4591 3.21 3.4791 3.09 3.4791 2.95C3.4791 2.81 3.41244 2.65333 3.2791 2.48C3.14577 2.3 3.02243 2.21 2.9091 2.21C2.79577 2.21 2.6191 2.25333 2.3791 2.34C2.3991 2.6 2.4091 2.86667 2.4091 3.14Z"/>
</mask>
<path d="M2.1291 1.43C2.58243 1.06333 2.8991 0.88 3.0791 0.88C3.26577 0.88 3.5591 1.05667 3.9591 1.41C4.36577 1.75667 4.6191 2.00333 4.7191 2.15C4.8191 2.29 4.8691 2.52333 4.8691 2.85C4.8691 3.17667 4.8191 3.42333 4.7191 3.59C4.6191 3.75 4.43577 3.95667 4.1691 4.21C4.5891 4.55667 4.88577 4.84667 5.0591 5.08C5.13244 5.2 5.1691 5.42667 5.1691 5.76C5.1691 6.08667 5.13244 6.3 5.0591 6.4C4.9391 6.66 4.6491 6.99333 4.1891 7.4C3.7291 7.8 3.36577 8 3.0991 8H1.0291V3.72C1.0291 3.18 0.989102 2.8 0.909102 2.58C0.835768 2.36 0.675768 2.1 0.429102 1.8L1.7491 0.88C1.9091 1.01333 2.03577 1.19667 2.1291 1.43ZM2.4091 4.96V6.79H3.0991C3.18577 6.79 3.29244 6.72333 3.4191 6.59C3.54577 6.45 3.63577 6.33 3.6891 6.23C3.7491 6.12333 3.7791 5.91 3.7791 5.59C3.7791 5.37 3.61244 5.16 3.2791 4.96H2.4091ZM2.4091 3.14V3.85H2.9191C2.99243 3.85 3.08244 3.78667 3.1891 3.66C3.30243 3.52667 3.3791 3.41 3.4191 3.31C3.4591 3.21 3.4791 3.09 3.4791 2.95C3.4791 2.81 3.41244 2.65333 3.2791 2.48C3.14577 2.3 3.02243 2.21 2.9091 2.21C2.79577 2.21 2.6191 2.25333 2.3791 2.34C2.3991 2.6 2.4091 2.86667 2.4091 3.14Z" fill="#1AE4B6"/>
<path d="M2.1291 1.43L1.66486 1.6157L1.91657 2.24497L2.44354 1.81876L2.1291 1.43ZM3.9591 1.41L3.62803 1.78479L3.63473 1.79051L3.9591 1.41ZM4.7191 2.15L4.30589 2.43173L4.31223 2.44062L4.7191 2.15ZM4.7191 3.59L5.14317 3.85504L5.14785 3.84725L4.7191 3.59ZM4.1691 4.21L3.82473 3.8475L3.41548 4.23628L3.85082 4.59561L4.1691 4.21ZM5.0591 5.08L5.48574 4.81927L5.47395 4.79998L5.46047 4.78184L5.0591 5.08ZM5.0591 6.4L4.6559 6.10432L4.62618 6.14484L4.60512 6.19047L5.0591 6.4ZM4.1891 7.4L4.5172 7.77732L4.52027 7.7746L4.1891 7.4ZM1.0291 8H0.529102V8.5H1.0291V8ZM0.909102 2.58L0.434587 2.73817L0.439205 2.75087L0.909102 2.58ZM0.429102 1.8L0.143205 1.3898L-0.300954 1.69937L0.042889 2.11755L0.429102 1.8ZM1.7491 0.88L2.06919 0.495889L1.77615 0.251687L1.46321 0.469801L1.7491 0.88ZM2.4091 4.96V4.46H1.9091V4.96H2.4091ZM2.4091 6.79H1.9091V7.29H2.4091V6.79ZM3.4191 6.59L3.78171 6.93448L3.78987 6.92546L3.4191 6.59ZM3.6891 6.23L3.2532 5.98481L3.24793 5.99471L3.6891 6.23ZM3.2791 4.96L3.53635 4.53125L3.41759 4.46H3.2791V4.96ZM2.4091 3.85H1.9091V4.35H2.4091V3.85ZM3.1891 3.66L2.80813 3.33617L2.80665 3.33793L3.1891 3.66ZM3.4191 3.31L3.88334 3.4957L3.88334 3.4957L3.4191 3.31ZM3.2791 2.48L2.87726 2.77766L2.88279 2.78485L3.2791 2.48ZM2.3791 2.34L2.20928 1.86972L1.85139 1.99896L1.88057 2.37835L2.3791 2.34ZM2.44354 1.81876C2.66038 1.64337 2.83032 1.52362 2.95712 1.45021C3.10298 1.36577 3.12927 1.38 3.0791 1.38V0.38C2.84894 0.38 2.62689 0.4859 2.45608 0.584787C2.26622 0.69471 2.05115 0.849968 1.81467 1.04124L2.44354 1.81876ZM3.0791 1.38C3.0334 1.38 3.05692 1.366 3.18114 1.44082C3.29174 1.50743 3.43971 1.61834 3.62808 1.78474L4.29012 1.03526C4.07849 0.848323 3.8798 0.694239 3.69706 0.584183C3.52795 0.482333 3.31147 0.38 3.0791 0.38V1.38ZM3.63473 1.79051C4.05046 2.14489 4.25008 2.34967 4.30599 2.43167L5.13222 1.86833C4.98812 1.65699 4.68108 1.36844 4.28347 1.02949L3.63473 1.79051ZM4.31223 2.44062C4.31023 2.43782 4.32685 2.46081 4.3427 2.53476C4.35819 2.60703 4.3691 2.70996 4.3691 2.85H5.3691C5.3691 2.49904 5.32055 2.13179 5.12597 1.85938L4.31223 2.44062ZM4.3691 2.85C4.3691 3.14073 4.32193 3.28013 4.29036 3.33275L5.14785 3.84725C5.31628 3.56653 5.3691 3.2126 5.3691 2.85H4.3691ZM4.2951 3.325C4.22963 3.42976 4.08393 3.60125 3.82473 3.8475L4.51348 4.5725C4.7876 4.31208 5.00858 4.07024 5.1431 3.855L4.2951 3.325ZM3.85082 4.59561C4.26172 4.93477 4.521 5.1941 4.65773 5.37816L5.46047 4.78184C5.25054 4.49923 4.91648 4.17857 4.48738 3.82439L3.85082 4.59561ZM4.63246 5.34072C4.62058 5.32128 4.63431 5.33513 4.64802 5.41984C4.66065 5.4979 4.6691 5.60926 4.6691 5.76H5.6691C5.6691 5.5774 5.65922 5.40876 5.63519 5.26016C5.61222 5.1182 5.57096 4.95872 5.48574 4.81927L4.63246 5.34072ZM4.6691 5.76C4.6691 5.9077 4.66059 6.01187 4.64883 6.0803C4.64305 6.1139 4.63767 6.13182 4.63545 6.13813C4.63287 6.14549 4.63713 6.12991 4.6559 6.10432L5.4623 6.69568C5.5671 6.55277 5.61133 6.38376 5.63438 6.2497C5.65928 6.1048 5.6691 5.93896 5.6691 5.76H4.6691ZM4.60512 6.19047C4.53199 6.34892 4.312 6.62397 3.85793 7.0254L4.52027 7.7746C4.9862 7.36269 5.34621 6.97108 5.51308 6.60953L4.60512 6.19047ZM3.86101 7.0227C3.64653 7.2092 3.47031 7.33501 3.33049 7.41198C3.1854 7.49184 3.1139 7.5 3.0991 7.5V8.5C3.35097 8.5 3.59447 8.40816 3.81272 8.28802C4.03623 8.16499 4.27167 7.9908 4.51719 7.7773L3.86101 7.0227ZM3.0991 7.5H1.0291V8.5H3.0991V7.5ZM1.5291 8V3.72H0.529102V8H1.5291ZM1.5291 3.72C1.5291 3.17802 1.49181 2.71936 1.379 2.40913L0.439205 2.75087C0.486393 2.88064 0.529102 3.18198 0.529102 3.72H1.5291ZM1.38344 2.42189C1.282 2.11755 1.07823 1.80221 0.815314 1.48245L0.042889 2.11755C0.273304 2.39779 0.38954 2.60245 0.43476 2.73811L1.38344 2.42189ZM0.714998 2.2102L2.035 1.2902L1.46321 0.469801L0.143205 1.3898L0.714998 2.2102ZM1.42901 1.26411C1.51331 1.33436 1.59603 1.44361 1.66486 1.6157L2.59334 1.2443C2.47551 0.94972 2.30489 0.692306 2.06919 0.495889L1.42901 1.26411ZM1.9091 4.96V6.79H2.9091V4.96H1.9091ZM2.4091 7.29H3.0991V6.29H2.4091V7.29ZM3.0991 7.29C3.26935 7.29 3.41017 7.22583 3.5091 7.164C3.61045 7.10065 3.70131 7.0189 3.7816 6.93437L3.0566 6.24563C3.03449 6.2689 3.01644 6.28589 3.00246 6.29787C2.98829 6.31002 2.98052 6.31512 2.9791 6.316C2.97746 6.31702 2.98623 6.31124 3.00486 6.30481C3.02393 6.29824 3.05634 6.29 3.0991 6.29V7.29ZM3.78987 6.92546C3.92841 6.77234 4.04915 6.61741 4.13028 6.46529L3.24793 5.99471C3.22239 6.04259 3.16313 6.12766 3.04833 6.25454L3.78987 6.92546ZM4.12489 6.47513C4.2003 6.34106 4.23363 6.18835 4.25173 6.05963C4.27112 5.92173 4.2791 5.76327 4.2791 5.59H3.2791C3.2791 5.73673 3.27208 5.84493 3.26147 5.92037C3.24957 6.00499 3.2379 6.01227 3.25331 5.98487L4.12489 6.47513ZM4.2791 5.59C4.2791 5.09195 3.9044 4.75209 3.53635 4.53125L3.02185 5.38875C3.15816 5.47053 3.22923 5.53647 3.26246 5.57833C3.29144 5.61484 3.2791 5.61592 3.2791 5.59H4.2791ZM3.2791 4.46H2.4091V5.46H3.2791V4.46ZM1.9091 3.14V3.85H2.9091V3.14H1.9091ZM2.4091 4.35H2.9191V3.35H2.4091V4.35ZM2.9191 4.35C3.09859 4.35 3.2399 4.27435 3.32935 4.2114C3.42242 4.1459 3.50296 4.06353 3.57156 3.98207L2.80665 3.33793C2.7888 3.35912 2.77484 3.37385 2.76482 3.38353C2.75457 3.39344 2.75088 3.39569 2.75386 3.3936C2.75649 3.39174 2.77082 3.38189 2.79646 3.37194C2.82275 3.36175 2.86486 3.35 2.9191 3.35V4.35ZM3.57007 3.98382C3.69942 3.83164 3.81465 3.66742 3.88334 3.4957L2.95486 3.1243C2.94355 3.15258 2.90545 3.22169 2.80813 3.33618L3.57007 3.98382ZM3.88334 3.4957C3.95288 3.32184 3.9791 3.13546 3.9791 2.95H2.9791C2.9791 3.04454 2.96532 3.09816 2.95486 3.1243L3.88334 3.4957ZM3.9791 2.95C3.9791 2.65307 3.84054 2.38981 3.67541 2.17514L2.88279 2.78485C2.93058 2.84698 2.95616 2.89305 2.96902 2.92328C2.98157 2.95276 2.9791 2.96015 2.9791 2.95H3.9791ZM3.68088 2.18239C3.5375 1.98882 3.28274 1.71 2.9091 1.71V2.71C2.82854 2.71 2.78648 2.67746 2.79187 2.68139C2.79381 2.68281 2.80289 2.68985 2.81859 2.70637C2.83412 2.7227 2.8538 2.74586 2.87732 2.77761L3.68088 2.18239ZM2.9091 1.71C2.70112 1.71 2.45273 1.78181 2.20928 1.86972L2.54892 2.81028C2.65835 2.77076 2.74482 2.74427 2.81071 2.7281C2.88049 2.71099 2.90923 2.71 2.9091 2.71V1.71ZM1.88057 2.37835C1.89955 2.62499 1.9091 2.87885 1.9091 3.14H2.9091C2.9091 2.85448 2.89866 2.575 2.87763 2.30165L1.88057 2.37835Z" fill="black" mask="url(#path-1-outside-1_217_4)"/>
</svg>
