<svg width="79" height="20" viewBox="0 0 79 20" fill="none" xmlns="http://www.w3.org/2000/svg">
<path d="M4.5 2.575C5.63333 1.65833 6.425 1.2 6.875 1.2C7.34167 1.2 8.075 1.64167 9.075 2.525C10.0917 3.39167 10.725 4.00833 10.975 4.375C11.225 4.725 11.35 5.30833 11.35 6.125C11.35 6.94167 11.225 7.55833 10.975 7.975C10.725 8.375 10.2667 8.89167 9.6 9.525C10.65 10.3917 11.3917 11.1167 11.825 11.7C12.0083 12 12.1 12.5667 12.1 13.4C12.1 14.2167 12.0083 14.75 11.825 15C11.525 15.65 10.8 16.4833 9.65 17.5C8.5 18.5 7.59167 19 6.925 19H1.75V8.3C1.75 6.95 1.65 6 1.45 5.45C1.26667 4.9 0.866667 4.25 0.25 3.5L3.55 1.2C3.95 1.53333 4.26667 1.99167 4.5 2.575ZM5.2 11.4V15.975H6.925C7.14167 15.975 7.40833 15.8083 7.725 15.475C8.04167 15.125 8.26667 14.825 8.4 14.575C8.55 14.3083 8.625 13.775 8.625 12.975C8.625 12.425 8.20833 11.9 7.375 11.4H5.2ZM5.2 6.85V8.625H6.475C6.65833 8.625 6.88333 8.46667 7.15 8.15C7.43333 7.81667 7.625 7.525 7.725 7.275C7.825 7.025 7.875 6.725 7.875 6.375C7.875 6.025 7.70833 5.63333 7.375 5.2C7.04167 4.75 6.73333 4.525 6.45 4.525C6.16667 4.525 5.725 4.63333 5.125 4.85C5.175 5.5 5.2 6.16667 5.2 6.85ZM23.6045 5.525V15.775C23.7045 16.3583 24.0962 16.875 24.7795 17.325L22.5295 19.25C22.3128 19.1 22.0462 18.8333 21.7295 18.45C21.4128 18.0667 21.1462 17.675 20.9295 17.275C19.5462 18.625 18.5795 19.3 18.0295 19.3C17.6295 19.3 16.9795 18.8583 16.0795 17.975C15.1962 17.0917 14.6462 16.375 14.4295 15.825C14.2128 15.275 14.1045 14.0917 14.1045 12.275C14.1045 10.4417 14.2128 9.25 14.4295 8.7C14.6462 8.15 15.1962 7.43333 16.0795 6.55C16.9795 5.66667 17.6295 5.225 18.0295 5.225C18.6128 5.225 19.5545 5.825 20.8545 7.025L21.1545 5.525H23.6045ZM20.1295 9.35C20.0128 9.13333 19.7712 8.91667 19.4045 8.7C19.0545 8.46667 18.7878 8.35 18.6045 8.35C18.4212 8.35 18.2212 8.45833 18.0045 8.675C17.8045 8.89167 17.6712 9.09167 17.6045 9.275C17.3878 9.575 17.2795 10.575 17.2795 12.275C17.2795 13.9583 17.3878 14.95 17.6045 15.25C17.6712 15.4167 17.8045 15.6167 18.0045 15.85C18.2212 16.0667 18.4212 16.175 18.6045 16.175C18.7878 16.175 19.0545 16.0667 19.4045 15.85C19.7712 15.6167 20.0045 15.4083 20.1045 15.225C20.2212 15.0417 20.2878 14.0667 20.3045 12.3C20.3045 10.5333 20.2462 9.55 20.1295 9.35ZM26.1465 5.525H29.4465V14.175C29.4465 15.025 29.5465 15.6833 29.7465 16.15C29.9465 16.6167 30.2632 17.025 30.6965 17.375L27.9465 19.3C26.7465 18.35 26.1465 17 26.1465 15.25V5.525ZM27.8465 0.299999C28.0298 0.299999 28.4382 0.574999 29.0715 1.125C29.7048 1.65833 30.0215 2.025 30.0215 2.225C30.0215 2.40833 29.6965 2.775 29.0465 3.325C28.4132 3.875 28.0048 4.15 27.8215 4.15C27.6548 4.15 27.2548 3.88333 26.6215 3.35C25.9882 2.8 25.6715 2.43333 25.6715 2.25C25.6715 2.05 25.9882 1.675 26.6215 1.125C27.2715 0.574999 27.6798 0.299999 27.8465 0.299999ZM35.6135 19H32.3135V10.375C32.3135 9.525 32.2135 8.86667 32.0135 8.4C31.8135 7.93333 31.4968 7.525 31.0635 7.175L33.8135 5.25C34.4301 5.75 34.8885 6.325 35.1885 6.975C36.4218 5.80833 37.2885 5.225 37.7885 5.225C38.3051 5.225 39.0718 5.69167 40.0885 6.625C41.1218 7.54167 41.6385 8.45 41.6385 9.35V14.175C41.6385 15.025 41.7385 15.6833 41.9385 16.15C42.1385 16.6167 42.4551 17.025 42.8885 17.375L40.1385 19.3C38.9385 18.35 38.3385 17 38.3385 15.25V9.7C38.3385 9.41667 38.1885 9.125 37.8885 8.825C37.5885 8.50833 37.3051 8.35 37.0385 8.35C36.7885 8.35 36.3135 8.7 35.6135 9.4V19ZM53.3617 12.225V13.125H47.3117C47.3117 14.125 47.4367 14.9167 47.6867 15.5C47.7701 15.7 47.9201 15.9083 48.1367 16.125C48.3534 16.325 48.5784 16.425 48.8117 16.425C49.0451 16.425 49.3367 16.225 49.6867 15.825C50.0367 15.425 50.3117 14.9417 50.5117 14.375L53.0867 16.2C52.6367 17.0333 51.9451 17.7583 51.0117 18.375C50.0951 18.9917 49.3534 19.3 48.7867 19.3C48.2201 19.3 47.3951 18.8583 46.3117 17.975C45.2451 17.0917 44.5951 16.4083 44.3617 15.925C44.1284 15.425 44.0117 14.2083 44.0117 12.275C44.0117 10.325 44.1284 9.10833 44.3617 8.625C44.5951 8.125 45.2451 7.43333 46.3117 6.55C47.3951 5.66667 48.1867 5.225 48.6867 5.225C49.1867 5.225 49.9701 5.66667 51.0367 6.55C52.1201 7.43333 52.7784 8.125 53.0117 8.625C53.2451 9.10833 53.3617 10.3083 53.3617 12.225ZM49.8867 9.1C49.7701 8.86667 49.5784 8.64167 49.3117 8.425C49.0617 8.20833 48.8201 8.1 48.5867 8.1C48.3701 8.1 48.1201 8.325 47.8367 8.775C47.5534 9.20833 47.3784 9.86667 47.3117 10.75H50.1617C50.1117 9.86667 50.0201 9.31667 49.8867 9.1ZM72.7201 1.5V11.725C72.7201 13.475 72.6285 14.5667 72.4451 15C72.1618 15.6833 71.4201 16.575 70.2201 17.675C69.0368 18.7583 68.1451 19.3 67.5451 19.3C66.9451 19.3 66.0451 18.7583 64.8451 17.675C63.6618 16.575 62.9285 15.6833 62.6451 15C62.4618 14.5667 62.3701 13.475 62.3701 11.725V8.1C62.3701 6.75 62.2701 5.8 62.0701 5.25C61.8868 4.7 61.4868 4.05 60.8701 3.3L63.8701 1.2C64.4035 1.55 64.8618 2.23333 65.2451 3.25C65.6285 4.25 65.8201 5.45 65.8201 6.85V11.725C65.8201 13.0917 65.8868 13.9333 66.0201 14.25C66.1535 14.55 66.3785 14.875 66.6951 15.225C67.0285 15.5583 67.3118 15.725 67.5451 15.725C67.7785 15.725 68.0535 15.5583 68.3701 15.225C68.7035 14.875 68.9368 14.55 69.0701 14.25C69.2035 13.9333 69.2701 13.0917 69.2701 11.725V1.5H72.7201ZM75.3746 19V1.5H78.8246V19H75.3746Z" fill="black"/>
</svg>
