<svg width="364" height="46" viewBox="0 0 364 46" fill="none" xmlns="http://www.w3.org/2000/svg">
<path d="M6.54141 37.9526L5.89688 39H0.122955V0.489258H7.74991V8.76074C8.66299 7.99089 10.2475 7.60596 12.5033 7.60596C13.8819 7.60596 15.1441 7.98193 16.2899 8.73389C17.4537 9.46794 18.0356 10.5332 18.0356 11.9297V34.3271C18.0356 35.9027 17.3463 37.147 15.9677 38.0601C14.5891 38.9731 12.933 39.4297 10.9994 39.4297C9.49551 39.4297 8.00951 38.9373 6.54141 37.9526ZM10.4086 33.1724V13.8633C10.4086 12.9144 9.96996 12.4399 9.09268 12.4399C8.1975 12.4399 7.74991 12.8965 7.74991 13.8096V33.1724C7.74991 34.1213 8.1975 34.5957 9.09268 34.5957C9.96996 34.5957 10.4086 34.1213 10.4086 33.1724ZM37.2512 39H30.4836V37.7915C29.9107 38.8836 28.2725 39.4297 25.569 39.4297C21.3975 39.4297 19.3117 37.8005 19.3117 34.542V28.2847C19.3117 26.8882 19.813 25.6707 20.8156 24.6323C21.8361 23.5939 23.8772 22.2959 26.9387 20.7383C28.7111 19.8431 29.5974 19.127 29.5974 18.5898V13.9707C29.5974 12.9502 29.1587 12.4399 28.2815 12.4399C27.2788 12.4399 26.7775 13.6842 26.7775 16.1729C26.7775 16.6204 26.8044 17.2829 26.8581 18.1602C26.9297 19.0374 26.9655 19.6999 26.9655 20.1475H19.5803V13.917C19.5803 9.70964 22.6239 7.60596 28.7111 7.60596C34.4045 7.60596 37.2512 9.79915 37.2512 14.1855V39ZM29.5974 33.1724V25.1426C27.8428 25.5723 26.9655 26.36 26.9655 27.5059V33.1724C26.9655 34.1213 27.4221 34.5957 28.3352 34.5957C29.1766 34.5957 29.5974 34.1213 29.5974 33.1724ZM46.0469 6.10205H38.3931V0.489258H46.0469V6.10205ZM46.0469 39H38.3931V7.8208H46.0469V39ZM65.0208 39H57.367V13.9707C57.367 13.0218 56.9284 12.5474 56.0511 12.5474C55.1738 12.5474 54.7352 13.0039 54.7352 13.917V39H47.0814V7.8208H54.7352V8.86816C55.7557 8.02669 57.3312 7.60596 59.4617 7.60596C60.8403 7.60596 62.1115 7.98193 63.2752 8.73389C64.4389 9.48584 65.0208 10.5869 65.0208 12.0371V39ZM84.0753 25.7871H73.7897V33.0649C73.7897 34.1213 74.2372 34.6494 75.1324 34.6494C76.0097 34.6494 76.4483 34.1213 76.4483 33.0649V26.7808H84.0753V33.1187C84.0753 37.326 81.0764 39.4297 75.0787 39.4297C69.1347 39.4297 66.1627 37.2365 66.1627 32.8501V14.1855C66.1627 9.79915 69.1347 7.60596 75.0787 7.60596C81.0764 7.60596 84.0753 9.70964 84.0753 13.917V25.7871ZM76.4483 21.1143V13.9707C76.4483 12.9502 76.0097 12.4399 75.1324 12.4399C74.2372 12.4399 73.7897 12.9502 73.7897 13.9707V21.1143H76.4483ZM103.157 39H95.5297V37.9526C94.545 38.9373 92.9695 39.4297 90.8031 39.4297C89.2992 39.4297 87.9923 39.0358 86.8822 38.248C85.7901 37.4424 85.244 36.395 85.244 35.106V7.8208H92.871V33.1724C92.871 34.1213 93.3186 34.5957 94.2138 34.5957C95.0911 34.5957 95.5297 34.1392 95.5297 33.2261V7.8208H103.157V39ZM124.816 39H116.383L113.752 30.5405L111.281 39H103.627L109.616 22.5107L103.788 7.8208H111.872L114.477 15.9043L116.545 7.8208H123.822L118.693 22.8867L124.816 39ZM132.188 39H125.206V33.3872H132.188V39ZM151.136 39H143.509V37.9526C142.524 38.9373 140.948 39.4297 138.782 39.4297C137.278 39.4297 135.971 39.0358 134.861 38.248C133.769 37.4424 133.223 36.395 133.223 35.106V7.8208H140.85V33.1724C140.85 34.1213 141.298 34.5957 142.193 34.5957C143.07 34.5957 143.509 34.1392 143.509 33.2261V7.8208H151.136V39ZM159.824 6.10205H152.17V0.489258H159.824V6.10205ZM159.824 39H152.17V7.8208H159.824V39ZM185.377 32.6621C184.017 34.3988 181.635 35.2671 178.234 35.2671C174.044 35.2671 171.95 33.6289 171.95 30.3525V16.5488C171.95 13.2904 174.044 11.6611 178.234 11.6611C180.794 11.6611 182.423 12.2161 183.121 13.3262V11.876H189.889V27.1836C189.889 29.6364 190.623 30.8628 192.091 30.8628C196.46 30.8628 198.644 28.1146 198.644 22.6182C198.644 10.6585 193.237 4.67871 182.423 4.67871C176.426 4.67871 172.075 6.46012 169.371 10.0229C166.668 13.5858 165.316 17.7842 165.316 22.6182C165.316 27.5059 166.677 31.7848 169.398 35.4551C172.138 39.1074 176.479 40.9336 182.423 40.9336C187.007 40.9336 191.089 40.495 194.669 39.6177V44.2368C191.017 45.1141 186.971 45.5527 182.531 45.5527C176.229 45.5527 171.037 43.3774 166.954 39.0269C162.89 34.6763 160.858 29.2604 160.858 22.7793C160.858 16.3161 162.89 10.945 166.954 6.66602C171.037 2.36914 176.229 0.220703 182.531 0.220703C188.976 0.220703 194.061 2.07373 197.785 5.77979C201.509 9.46794 203.371 15.1344 203.371 22.7793C203.371 26.3421 202.314 29.3231 200.202 31.7222C198.089 34.1213 195.332 35.3208 191.93 35.3208C188.94 35.3208 186.756 34.4346 185.377 32.6621ZM182.235 28.9829V17.9722C182.235 16.9875 181.797 16.4951 180.919 16.4951C180.042 16.4951 179.603 17.0143 179.603 18.0527V28.9829C179.603 29.9497 180.06 30.4331 180.973 30.4331C181.815 30.4331 182.235 29.9497 182.235 28.9829ZM205.721 45.6064V41.0947H211.925C213.733 41.0947 214.637 40.1548 214.637 38.2749C213.634 39.0448 212.059 39.4297 209.91 39.4297C208.406 39.4297 207.099 39.0358 205.989 38.248C204.897 37.4424 204.351 36.395 204.351 35.106V12.7085C204.351 9.3068 206.383 7.60596 210.447 7.60596C211.522 7.60596 212.936 8.0625 214.691 8.97559L215.684 7.8208H222.264V38.5703C222.264 40.5934 221.861 42.2674 221.055 43.5923C220.268 44.9351 217.797 45.6064 213.643 45.6064H205.721ZM214.637 33.4409V13.8633C214.637 12.9144 214.198 12.4399 213.321 12.4399C212.426 12.4399 211.978 12.9144 211.978 13.8633V33.3872C211.978 34.3361 212.426 34.8105 213.321 34.8105C214.198 34.8105 214.637 34.354 214.637 33.4409ZM251.685 39H244.058V14.0781C244.058 13.1292 243.619 12.6548 242.742 12.6548C241.847 12.6548 241.399 13.1113 241.399 14.0244V39H233.772V14.0244C233.772 13.0755 233.333 12.6011 232.456 12.6011C231.561 12.6011 231.113 13.0576 231.113 13.9707V39H223.486V7.8208H231.113V8.92188C232.17 8.0446 233.754 7.60596 235.867 7.60596C237.639 7.60596 239.25 8.31315 240.701 9.72754C242.043 8.31315 243.879 7.60596 246.206 7.60596C247.531 7.60596 248.775 8.00879 249.939 8.81445C251.103 9.60221 251.685 10.7033 251.685 12.1177V39ZM270.954 39H264.186V37.7915C263.613 38.8836 261.975 39.4297 259.272 39.4297C255.1 39.4297 253.014 37.8005 253.014 34.542V28.2847C253.014 26.8882 253.516 25.6707 254.518 24.6323C255.539 23.5939 257.58 22.2959 260.641 20.7383C262.414 19.8431 263.3 19.127 263.3 18.5898V13.9707C263.3 12.9502 262.861 12.4399 261.984 12.4399C260.982 12.4399 260.48 13.6842 260.48 16.1729C260.48 16.6204 260.507 17.2829 260.561 18.1602C260.632 19.0374 260.668 19.6999 260.668 20.1475H253.283V13.917C253.283 9.70964 256.327 7.60596 262.414 7.60596C268.107 7.60596 270.954 9.79915 270.954 14.1855V39ZM263.3 33.1724V25.1426C261.546 25.5723 260.668 26.36 260.668 27.5059V33.1724C260.668 34.1213 261.125 34.5957 262.038 34.5957C262.879 34.5957 263.3 34.1213 263.3 33.1724ZM279.75 6.10205H272.096V0.489258H279.75V6.10205ZM279.75 39H272.096V7.8208H279.75V39ZM288.518 39H280.865V0.489258H288.518V39ZM296.589 39H289.607V33.3872H296.589V39ZM315.536 21.6245H307.909V13.9707C307.909 12.9502 307.471 12.4399 306.593 12.4399C305.698 12.4399 305.25 12.9502 305.25 13.9707V33.0649C305.25 34.1213 305.698 34.6494 306.593 34.6494C307.471 34.6494 307.909 34.1213 307.909 33.0649V25.5186H315.536V33.1187C315.536 37.326 312.591 39.4297 306.701 39.4297C300.649 39.4297 297.624 37.2365 297.624 32.8501V14.1855C297.624 9.79915 300.649 7.60596 306.701 7.60596C312.591 7.60596 315.536 9.70964 315.536 13.917V21.6245ZM316.544 32.8501V14.1855C316.544 9.79915 319.578 7.60596 325.648 7.60596C327.993 7.60596 330.052 8.11621 331.825 9.13672C333.615 10.1572 334.51 11.7507 334.51 13.917V33.1187C334.51 37.326 331.556 39.4297 325.648 39.4297C319.578 39.4297 316.544 37.2365 316.544 32.8501ZM326.856 33.0649V13.9707C326.856 12.9502 326.418 12.4399 325.54 12.4399C324.645 12.4399 324.198 12.9502 324.198 13.9707V33.0649C324.198 34.1213 324.645 34.6494 325.54 34.6494C326.418 34.6494 326.856 34.1213 326.856 33.0649ZM363.796 39H356.17V14.0781C356.17 13.1292 355.731 12.6548 354.854 12.6548C353.958 12.6548 353.511 13.1113 353.511 14.0244V39H345.884V14.0244C345.884 13.0755 345.445 12.6011 344.568 12.6011C343.673 12.6011 343.225 13.0576 343.225 13.9707V39H335.598V7.8208H343.225V8.92188C344.282 8.0446 345.866 7.60596 347.979 7.60596C349.751 7.60596 351.362 8.31315 352.813 9.72754C354.155 8.31315 355.99 7.60596 358.318 7.60596C359.643 7.60596 360.887 8.00879 362.051 8.81445C363.215 9.60221 363.796 10.7033 363.796 12.1177V39Z" fill="white"/>
<a href="mailto:baineux.ui@gmail.com">
<rect fill="black" fill-opacity="0" x="42.2904" y="0.1604" width="365.419" height="58.6792"/>
</a>
</svg>
