<svg width="124" height="56" viewBox="0 0 124 56" fill="none" xmlns="http://www.w3.org/2000/svg">
<path d="M0 55.5014V0.49863H8.81472C10.9214 0.49863 12.7508 1.27854 14.3031 2.83836C15.8554 4.3726 16.6315 6.84018 16.6315 10.2411V17.874C16.6315 21.7352 15.1743 24.4584 12.2598 26.0438C15.3327 27.2712 16.8691 29.9178 16.8691 33.9836V44.6466C16.8691 48.2776 16.1326 51.0009 14.6595 52.8164C13.2023 54.6064 11.4599 55.5014 9.43246 55.5014H0ZM9.57501 19.8301V10.4712C9.57501 8.55342 8.87807 7.59452 7.48419 7.59452V22.7452C8.87807 22.7452 9.57501 21.7735 9.57501 19.8301ZM9.57501 45.5288V31.6055C9.57501 29.6877 8.87807 28.7288 7.48419 28.7288V48.4438C8.87807 48.4438 9.57501 47.4721 9.57501 45.5288Z" fill="black"/>
<path d="M36.9695 55.5781H29.4853C28.6775 54.0183 28.2736 49.5945 28.2736 42.3069V42.2301L28.3211 38.9315C28.3687 34.3543 28.3924 32.0146 28.3924 31.9123C28.3924 30.0457 27.6163 29.1123 26.064 29.1123V55.5014H18.5798V0.49863H27.8222C29.9289 0.49863 31.7583 1.27854 33.3106 2.83836C34.8787 4.39817 35.6628 6.86575 35.6628 10.2411V16.8384C35.6628 21.1087 34.1184 23.9982 31.0297 25.5068C34.1343 26.6831 35.6865 29.7132 35.6865 34.5973L35.5677 40.6192C35.5677 49.4155 36.035 54.4018 36.9695 55.5781ZM28.3924 19.5233V10.4712C28.3924 8.55342 27.6163 7.59452 26.064 7.59452V22.4384C27.6163 22.4384 28.3924 21.4667 28.3924 19.5233Z" fill="black"/>
<path d="M58.2341 55.5014H50.8212L49.562 40.7342H46.2119L44.9527 55.5014H37.5398L43.147 0.49863H52.6269L58.2341 55.5014ZM48.9442 33.1014L47.8751 16.6849L46.8534 33.1014H48.9442Z" fill="black"/>
<path d="M59.3508 55.5014V0.49863H68.6645C70.692 0.49863 72.4977 1.39361 74.0816 3.18356C75.6656 4.94795 76.4576 7.67123 76.4576 11.3534V44.6466C76.4576 48.0731 75.7131 50.7452 74.2242 52.663C72.7511 54.5553 70.9137 55.5014 68.712 55.5014H59.3508ZM68.9258 45.5288V10.4712C68.9258 8.55342 68.2289 7.59452 66.835 7.59452V48.4438C68.2289 48.4438 68.9258 47.4721 68.9258 45.5288Z" fill="black"/>
<path d="M85.3673 55.5014H77.8831V0.49863H85.3673V55.5014Z" fill="black"/>
<path d="M105.943 55.5014H98.2449L93.1604 26.1973V55.5014H86.9117V0.49863H95.4175L99.6942 25.5836V0.49863H105.943V55.5014Z" fill="black"/>
<path d="M124 55.5014H120.412L119.438 52.4712C117.791 54.8237 116.049 56 114.211 56C112.421 56 110.853 55.2584 109.507 53.7753C108.176 52.2667 107.511 49.8758 107.511 46.6027V10.7014C107.511 3.56712 110.33 0 115.969 0C121.323 0 124 3.24749 124 9.74247V19.9452H117.229V8.82192C117.229 7.92694 116.856 7.47945 116.112 7.47945C115.367 7.47945 114.995 7.92694 114.995 8.82192V46.9863C114.995 47.8813 115.367 48.3288 116.112 48.3288C116.856 48.3288 117.229 47.8813 117.229 46.9863V36.7069H115.684V28.2685H124V55.5014Z" fill="black"/>
</svg>
