<svg width="822" height="113" viewBox="0 0 822 113" fill="none" xmlns="http://www.w3.org/2000/svg">
<path d="M0 111.994V1.00616H17.8049C22.0601 1.00616 25.7555 2.57991 28.8909 5.7274C32.0264 8.82329 33.5941 13.8025 33.5941 20.6651V36.0671C33.5941 43.8584 30.6506 49.3537 24.7637 52.5527C30.9706 55.0294 34.074 60.3699 34.074 68.574V90.0904C34.074 97.4174 32.5863 102.913 29.6108 106.576C26.6673 110.188 23.1479 111.994 19.0527 111.994H0ZM19.3406 40.0144V21.1295C19.3406 17.2596 17.9329 15.3247 15.1174 15.3247V45.8966C17.9329 45.8966 19.3406 43.9358 19.3406 40.0144ZM19.3406 91.8705V63.7753C19.3406 59.9055 17.9329 57.9705 15.1174 57.9705V97.7527C17.9329 97.7527 19.3406 95.792 19.3406 91.8705Z" fill="white"/>
<path d="M35.2757 1.00616H50.3931V94.1925C50.3931 96.4112 51.241 97.5205 52.9367 97.5205C54.6004 97.5205 55.4322 96.4112 55.4322 94.1925V1.00616H70.5496V92.8767C70.5496 99.2749 68.9019 104.228 65.6064 107.737C62.311 111.246 58.0877 113 52.9367 113C48.1695 113 44.0262 111.426 40.5068 108.279C37.0194 105.131 35.2757 100.049 35.2757 93.0315V1.00616Z" fill="white"/>
<path d="M86.7246 111.994H71.6073V1.00616H86.7246V111.994Z" fill="white"/>
<path d="M116.385 111.994H88.0223V1.00616H103.14V97.7527H116.385V111.994Z" fill="white"/>
<path d="M116.627 111.994V1.00616H135.44C139.535 1.00616 143.183 2.8121 146.382 6.42397C149.581 9.98425 151.181 15.4795 151.181 22.9096V90.0904C151.181 97.0046 149.677 102.397 146.67 106.266C143.694 110.085 139.983 111.994 135.536 111.994H116.627ZM135.968 91.8705V21.1295C135.968 17.2596 134.56 15.3247 131.745 15.3247V97.7527C134.56 97.7527 135.968 95.792 135.968 91.8705Z" fill="white"/>
<path d="M209.255 1.00616L194.425 68.1096V111.994H179.308V68.961C179.02 65.0395 177.724 57.3772 175.421 45.974C173.437 36.3251 170.526 21.3358 166.686 1.00616H181.132L187.947 40.324L195.673 1.00616H209.255Z" fill="white"/>
<path d="M209.161 93.0315V21.5938C209.161 7.19795 214.952 0 226.534 0C237.956 0 243.667 7.14635 243.667 21.439V92.8767C243.667 99.3265 242.067 104.306 238.868 107.814C235.7 111.271 231.557 113 226.438 113C214.92 113 209.161 106.344 209.161 93.0315ZM228.885 94.1925V18.5753C228.885 16.3566 228.07 15.2473 226.438 15.2473C224.742 15.2473 223.894 16.3566 223.894 18.5753V94.1925C223.894 96.4112 224.742 97.5205 226.438 97.5205C228.07 97.5205 228.885 96.4112 228.885 94.1925Z" fill="white"/>
<path d="M244.772 1.00616H259.89V94.1925C259.89 96.4112 260.738 97.5205 262.433 97.5205C264.097 97.5205 264.929 96.4112 264.929 94.1925V1.00616H280.046V92.8767C280.046 99.2749 278.399 104.228 275.103 107.737C271.808 111.246 267.584 113 262.433 113C257.666 113 253.523 111.426 250.004 108.279C246.516 105.131 244.772 100.049 244.772 93.0315V1.00616Z" fill="white"/>
<path d="M318.729 112.149H303.612C301.98 109.001 301.164 100.075 301.164 85.3692V85.2144L301.26 78.5582C301.356 69.3221 301.404 64.6009 301.404 64.3945C301.404 60.6279 299.837 58.7445 296.701 58.7445V111.994H281.584V1.00616H300.253C304.508 1.00616 308.203 2.57991 311.339 5.7274C314.506 8.87489 316.09 13.8541 316.09 20.6651V33.9774C316.09 42.5943 312.97 48.4249 306.732 51.4692C313.002 53.8427 316.138 59.9571 316.138 69.8123L315.898 81.9637C315.898 99.7135 316.842 109.775 318.729 112.149ZM301.404 39.3952V21.1295C301.404 17.2596 299.837 15.3247 296.701 15.3247V45.2774C299.837 45.2774 301.404 43.3167 301.404 39.3952Z" fill="white"/>
<path d="M349.208 71.1281V111.994H334.475V1.00616H350.36C356.663 1.00616 361.334 2.29612 364.373 4.87603C367.445 7.45594 368.98 12.7189 368.98 20.6651V51.4692C368.98 58.7445 367.733 63.9043 365.237 66.9486C362.742 69.9413 357.398 71.3345 349.208 71.1281ZM354.247 49.3795V22.7548C354.247 18.8333 352.567 16.8726 349.208 16.8726V55.2616C352.567 55.2616 354.247 53.3009 354.247 49.3795Z" fill="white"/>
<path d="M369.606 93.0315V21.5938C369.606 7.19795 375.397 0 386.979 0C398.401 0 404.112 7.14635 404.112 21.439V92.8767C404.112 99.3265 402.513 104.306 399.313 107.814C396.146 111.271 392.002 113 386.883 113C375.365 113 369.606 106.344 369.606 93.0315ZM389.331 94.1925V18.5753C389.331 16.3566 388.515 15.2473 386.883 15.2473C385.188 15.2473 384.34 16.3566 384.34 18.5753V94.1925C384.34 96.4112 385.188 97.5205 386.883 97.5205C388.515 97.5205 389.331 96.4112 389.331 94.1925Z" fill="white"/>
<path d="M442.651 112.149H427.534C425.902 109.001 425.086 100.075 425.086 85.3692V85.2144L425.182 78.5582C425.278 69.3221 425.326 64.6009 425.326 64.3945C425.326 60.6279 423.759 58.7445 420.623 58.7445V111.994H405.506V1.00616H424.175C428.43 1.00616 432.125 2.57991 435.261 5.7274C438.428 8.87489 440.012 13.8541 440.012 20.6651V33.9774C440.012 42.5943 436.892 48.4249 430.653 51.4692C436.924 53.8427 440.06 59.9571 440.06 69.8123L439.82 81.9637C439.82 99.7135 440.764 109.775 442.651 112.149ZM425.326 39.3952V21.1295C425.326 17.2596 423.759 15.3247 420.623 15.3247V45.2774C423.759 45.2774 425.326 43.3167 425.326 39.3952Z" fill="white"/>
<path d="M474.328 15.4795H465.881V111.994H450.764V15.4795H442.317V1.00616H474.328V15.4795Z" fill="white"/>
<path d="M503.605 15.3247H490.407V45.2774H502.213V58.7445H490.407V111.994H475.29V1.00616H503.605V15.3247Z" fill="white"/>
<path d="M503.99 93.0315V21.5938C503.99 7.19795 509.781 0 521.363 0C532.785 0 538.496 7.14635 538.496 21.439V92.8767C538.496 99.3265 536.897 104.306 533.697 107.814C530.53 111.271 526.386 113 521.267 113C509.749 113 503.99 106.344 503.99 93.0315ZM523.715 94.1925V18.5753C523.715 16.3566 522.899 15.2473 521.267 15.2473C519.572 15.2473 518.724 16.3566 518.724 18.5753V94.1925C518.724 96.4112 519.572 97.5205 521.267 97.5205C522.899 97.5205 523.715 96.4112 523.715 94.1925Z" fill="white"/>
<path d="M568.205 111.994H539.842V1.00616H554.959V97.7527H568.205V111.994Z" fill="white"/>
<path d="M583.468 111.994H568.351V1.00616H583.468V111.994Z" fill="white"/>
<path d="M584.478 93.0315V21.5938C584.478 7.19795 590.269 0 601.851 0C613.273 0 618.984 7.14635 618.984 21.439V92.8767C618.984 99.3265 617.384 104.306 614.185 107.814C611.017 111.271 606.874 113 601.755 113C590.237 113 584.478 106.344 584.478 93.0315ZM604.203 94.1925V18.5753C604.203 16.3566 603.387 15.2473 601.755 15.2473C600.059 15.2473 599.211 16.3566 599.211 18.5753V94.1925C599.211 96.4112 600.059 97.5205 601.755 97.5205C603.387 97.5205 604.203 96.4112 604.203 94.1925Z" fill="white"/>
<path d="M667.315 15.4795H658.869V111.994H643.752V15.4795H635.305V1.00616H667.315V15.4795Z" fill="white"/>
<path d="M668.133 93.0315V21.5938C668.133 7.19795 673.924 0 685.506 0C696.928 0 702.639 7.14635 702.639 21.439V92.8767C702.639 99.3265 701.039 104.306 697.84 107.814C694.673 111.271 690.529 113 685.41 113C673.892 113 668.133 106.344 668.133 93.0315ZM687.858 94.1925V18.5753C687.858 16.3566 687.042 15.2473 685.41 15.2473C683.714 15.2473 682.867 16.3566 682.867 18.5753V94.1925C682.867 96.4112 683.714 97.5205 685.41 97.5205C687.042 97.5205 687.858 96.4112 687.858 94.1925Z" fill="white"/>
<path d="M703.649 111.994V1.00616H722.462C726.557 1.00616 730.204 2.8121 733.404 6.42397C736.603 9.98425 738.203 15.4795 738.203 22.9096V90.0904C738.203 97.0046 736.699 102.397 733.692 106.266C730.716 110.085 727.005 111.994 722.558 111.994H703.649ZM722.989 91.8705V21.1295C722.989 17.2596 721.582 15.3247 718.766 15.3247V97.7527C721.582 97.7527 722.989 95.792 722.989 91.8705Z" fill="white"/>
<path d="M780.245 111.994H765.272L762.728 82.1959H755.962L753.418 111.994H738.445L749.771 1.00616H768.919L780.245 111.994ZM761.481 66.7938L759.321 33.6678L757.257 66.7938H761.481Z" fill="white"/>
<path d="M822 1.00616L807.171 68.1096V111.994H792.053V68.961C791.765 65.0395 790.469 57.3772 788.166 45.974C786.182 36.3251 783.271 21.3358 779.431 1.00616H793.877L800.692 40.324L808.418 1.00616H822Z" fill="white"/>
</svg>
