<svg width="233" height="59" viewBox="0 0 233 59" fill="none" xmlns="http://www.w3.org/2000/svg">
<path d="M16.2185 58.4747H12.6897L11.7315 55.2822C10.1112 57.7607 8.39746 59 6.59021 59C4.82971 59 3.28732 58.2187 1.96304 56.6562C0.654347 55.0667 0 52.5477 0 49.0993V11.2747C0 3.75822 2.77319 0 8.31956 0C13.5855 0 16.2185 3.42146 16.2185 10.2644V21.0137H9.55815V9.29452C9.55815 8.3516 9.19202 7.88014 8.45978 7.88014C7.72753 7.88014 7.36141 8.3516 7.36141 9.29452V49.5034C7.36141 50.4464 7.72753 50.9178 8.45978 50.9178C9.19202 50.9178 9.55815 50.4464 9.55815 49.5034V38.6733H8.03912V29.7829H16.2185V58.4747Z" fill="black"/>
<path d="M36.4443 58.5555H29.0829C28.2884 56.9121 27.8911 52.2514 27.8911 44.5733V44.4925L27.9378 41.0171C27.9846 36.1948 28.0079 33.7297 28.0079 33.6219C28.0079 31.6553 27.2445 30.6719 25.7177 30.6719V58.4747H18.3563V0.525342H27.4471C29.5192 0.525342 31.3186 1.34703 32.8454 2.99041C34.3878 4.63379 35.159 7.23356 35.159 10.7897V17.7404C35.159 22.2395 33.64 25.2838 30.602 26.8733C33.6556 28.1126 35.1824 31.305 35.1824 36.4507L35.0655 42.7952C35.0655 52.0628 35.5251 57.3162 36.4443 58.5555ZM28.0079 20.5692V11.0322C28.0079 9.01164 27.2445 8.00137 25.7177 8.00137V23.6404C27.2445 23.6404 28.0079 22.6167 28.0079 20.5692Z" fill="black"/>
<path d="M57.8387 58.4747H50.5474L49.3088 42.9164H46.0137L44.7751 58.4747H37.4838L42.999 0.525342H52.3235L57.8387 58.4747ZM48.7012 34.8747L47.6496 17.5788L46.6447 34.8747H48.7012Z" fill="black"/>
<path d="M66.6836 37.1377V58.4747H59.5092V0.525342H67.2445C70.3137 0.525342 72.5883 1.19886 74.0684 2.54589C75.564 3.89292 76.3119 6.64087 76.3119 10.7897V26.8733C76.3119 30.6719 75.7043 33.366 74.489 34.9555C73.2738 36.518 70.672 37.2454 66.6836 37.1377ZM69.1374 25.7822V11.8808C69.1374 9.83333 68.3195 8.80959 66.6836 8.80959V28.8534C68.3195 28.8534 69.1374 27.8297 69.1374 25.7822Z" fill="black"/>
<path d="M94.785 58.4747H87.4236V30.6719H85.3671V58.4747H78.0057V0.525342H85.3671V23.6404H87.4236V0.525342H94.785V58.4747Z" fill="black"/>
<path d="M104.004 58.4747H96.6424V0.525342H104.004V58.4747Z" fill="black"/>
<path d="M122.103 20.7712H115.396V9.29452C115.396 8.3516 115.061 7.88014 114.391 7.88014C113.69 7.88014 113.34 8.3516 113.34 9.29452V49.5034C113.34 50.4464 113.69 50.9178 114.391 50.9178C115.061 50.9178 115.396 50.4464 115.396 49.5034V35.1979H122.103V49.9075C122.103 52.6555 121.324 54.8646 119.766 56.5349C118.208 58.1783 116.448 59 114.485 59C108.814 59 105.978 55.5247 105.978 48.574V11.2747C105.978 3.75822 108.814 0 114.485 0C119.564 0 122.103 3.42146 122.103 10.2644V20.7712Z" fill="black"/>
<path d="M133.133 58.4747V0.525342H142.293C144.288 0.525342 146.064 1.46826 147.622 3.35411C149.18 5.21301 149.959 8.08219 149.959 11.9616V47.0384C149.959 50.6484 149.226 53.4637 147.762 55.4842C146.313 57.4779 144.506 58.4747 142.34 58.4747H133.133ZM142.551 47.9678V11.0322C142.551 9.01164 141.865 8.00137 140.494 8.00137V51.039C141.865 51.039 142.551 50.0153 142.551 47.9678Z" fill="black"/>
<path d="M166.375 58.4747H151.98V0.525342H166.282V8.00137H159.341V23.6404H165.604V30.6719H159.341V51.039H166.375V58.4747Z" fill="black"/>
<path d="M168.046 35.2788H174.753V48.574C174.753 49.8941 175.212 50.5541 176.132 50.5541C177.02 50.5541 177.464 49.8941 177.464 48.574V41.7041C177.464 39.6027 176.654 37.1377 175.033 34.3089C171.902 29.0555 169.954 25.5263 169.191 23.7212C168.427 21.9162 168.046 19.9361 168.046 17.7808V11.2747C168.046 3.75822 170.881 0 176.552 0C181.631 0 184.171 3.42146 184.171 10.2644V20.2863H177.464V9.61781C177.464 8.45936 177.098 7.88014 176.365 7.88014C175.508 7.88014 175.08 8.99817 175.08 11.2342L175.22 14.9925C175.22 17.1477 176.046 19.6532 177.697 22.5089C180.767 27.6007 182.714 31.1569 183.54 33.1774C184.381 35.1979 184.802 37.4879 184.802 40.0473V47.4425C184.802 55.1475 181.958 59 176.272 59C170.788 59 168.046 55.4977 168.046 48.4932V35.2788Z" fill="black"/>
<path d="M194.091 58.4747H186.729V0.525342H194.091V58.4747Z" fill="black"/>
<path d="M212.237 58.4747H208.708L207.75 55.2822C206.129 57.7607 204.416 59 202.608 59C200.848 59 199.305 58.2187 197.981 56.6562C196.673 55.0667 196.018 52.5477 196.018 49.0993V11.2747C196.018 3.75822 198.791 0 204.338 0C209.604 0 212.237 3.42146 212.237 10.2644V21.0137H205.576V9.29452C205.576 8.3516 205.21 7.88014 204.478 7.88014C203.746 7.88014 203.38 8.3516 203.38 9.29452V49.5034C203.38 50.4464 203.746 50.9178 204.478 50.9178C205.21 50.9178 205.576 50.4464 205.576 49.5034V38.6733H204.057V29.7829H212.237V58.4747Z" fill="black"/>
<path d="M233 58.4747H225.428L220.427 27.6007V58.4747H214.281V0.525342H222.647L226.854 26.9541V0.525342H233V58.4747Z" fill="black"/>
</svg>
