<svg width="180" height="60" viewBox="0 0 180 60" fill="none" xmlns="http://www.w3.org/2000/svg">
<path d="M13.8141 59.4658H0V0.534247H7.36287V51.9041H13.8141V59.4658Z" fill="black"/>
<path d="M15.3914 49.3973V11.4658C15.3914 3.82192 18.2119 0 23.8529 0C29.416 0 32.1975 3.79452 32.1975 11.3836V49.3151C32.1975 52.7397 31.4183 55.3836 29.8601 57.2466C28.3174 59.0822 26.2994 60 23.8061 60C18.1963 60 15.3914 56.4658 15.3914 49.3973ZM24.9982 50.0137V9.86301C24.9982 8.68493 24.6009 8.09589 23.8061 8.09589C22.9803 8.09589 22.5673 8.68493 22.5673 9.86301V50.0137C22.5673 51.1918 22.9803 51.7808 23.8061 51.7808C24.6009 51.7808 24.9982 51.1918 24.9982 50.0137Z" fill="black"/>
<path d="M50.3705 59.4658H46.841L45.8826 56.2192C44.262 58.7397 42.5479 60 40.7403 60C38.9794 60 37.4367 59.2055 36.1122 57.6164C34.8032 56 34.1488 53.4384 34.1488 49.9315V11.4658C34.1488 3.82192 36.9225 0 42.47 0C47.737 0 50.3705 3.47945 50.3705 10.4384V21.3699H43.7088V9.45205C43.7088 8.49315 43.3426 8.0137 42.6102 8.0137C41.8778 8.0137 41.5116 8.49315 41.5116 9.45205V50.3425C41.5116 51.3014 41.8778 51.7808 42.6102 51.7808C43.3426 51.7808 43.7088 51.3014 43.7088 50.3425V39.3288H42.1895V30.2877H50.3705V59.4658Z" fill="black"/>
<path d="M52.3451 49.3973V11.4658C52.3451 3.82192 55.1656 0 60.8066 0C66.3696 0 69.1512 3.79452 69.1512 11.3836V49.3151C69.1512 52.7397 68.372 55.3836 66.8137 57.2466C65.271 59.0822 63.2531 60 60.7598 60C55.15 60 52.3451 56.4658 52.3451 49.3973ZM61.9519 50.0137V9.86301C61.9519 8.68493 61.5545 8.09589 60.7598 8.09589C59.9339 8.09589 59.521 8.68493 59.521 9.86301V50.0137C59.521 51.1918 59.9339 51.7808 60.7598 51.7808C61.5545 51.7808 61.9519 51.1918 61.9519 50.0137Z" fill="black"/>
<path d="M80.1127 59.4658V0.534247H89.2754C91.27 0.534247 93.0464 1.49315 94.6047 3.41096C96.163 5.30137 96.9421 8.21918 96.9421 12.1644V47.8356C96.9421 51.5068 96.2097 54.3699 94.745 56.4247C93.2958 58.4521 91.4882 59.4658 89.3222 59.4658H80.1127ZM89.5325 48.7808V11.2192C89.5325 9.16438 88.8469 8.13699 87.4756 8.13699V51.9041C88.8469 51.9041 89.5325 50.863 89.5325 48.7808Z" fill="black"/>
<path d="M113.362 59.4658H98.9635V0.534247H113.269V8.13699H106.326V24.0411H112.591V31.1918H106.326V51.9041H113.362V59.4658Z" fill="black"/>
<path d="M115.033 35.8767H121.741V49.3973C121.741 50.7397 122.201 51.411 123.12 51.411C124.009 51.411 124.453 50.7397 124.453 49.3973V42.411C124.453 40.274 123.642 37.7671 122.022 34.8904C118.89 29.5479 116.942 25.9589 116.178 24.1233C115.415 22.2877 115.033 20.274 115.033 18.0822V11.4658C115.033 3.82192 117.869 0 123.541 0C128.621 0 131.161 3.47945 131.161 10.4384V20.6301H124.453V9.78082C124.453 8.60274 124.086 8.0137 123.354 8.0137C122.497 8.0137 122.068 9.15069 122.068 11.4247L122.209 15.2466C122.209 17.4384 123.035 19.9863 124.686 22.8904C127.756 28.0685 129.704 31.6849 130.53 33.7397C131.371 35.7945 131.792 38.1233 131.792 40.726V48.2466C131.792 56.0822 128.948 60 123.261 60C117.775 60 115.033 56.4384 115.033 49.3151V35.8767Z" fill="black"/>
<path d="M141.083 59.4658H133.72V0.534247H141.083V59.4658Z" fill="black"/>
<path d="M159.232 59.4658H155.703L154.745 56.2192C153.124 58.7397 151.41 60 149.602 60C147.841 60 146.299 59.2055 144.974 57.6164C143.665 56 143.011 53.4384 143.011 49.9315V11.4658C143.011 3.82192 145.785 0 151.332 0C156.599 0 159.232 3.47945 159.232 10.4384V21.3699H152.571V9.45205C152.571 8.49315 152.205 8.0137 151.472 8.0137C150.74 8.0137 150.374 8.49315 150.374 9.45205V50.3425C150.374 51.3014 150.74 51.7808 151.472 51.7808C152.205 51.7808 152.571 51.3014 152.571 50.3425V39.3288H151.052V30.2877H159.232V59.4658Z" fill="black"/>
<path d="M180 59.4658H172.427L167.425 28.0685V59.4658H161.277V0.534247H169.645L173.853 27.411V0.534247H180V59.4658Z" fill="black"/>
</svg>
