<svg width="697" height="150" viewBox="0 0 697 150" fill="none" xmlns="http://www.w3.org/2000/svg">
<path d="M20.6292 0L12.3547 19.3982L8.90224 18.6191L12.6971 0H20.6292ZM11.7555 0L3.45247 19.3982L0 18.6191L3.8234 0H11.7555Z" fill="white"/>
<path d="M22.1985 55.8574V0H32.7842C35.3141 0 37.5112 0.792027 39.3753 2.37608C41.2395 3.93417 42.1715 6.44009 42.1715 9.89384V17.6453C42.1715 21.5665 40.4215 24.3321 36.9215 25.9421C40.6117 27.1886 42.4569 29.8763 42.4569 34.0052V44.8339C42.4569 48.5214 41.5723 51.287 39.8033 53.1307C38.0533 54.9485 35.9609 55.8574 33.5261 55.8574H22.1985ZM33.6973 19.6319V10.1276C33.6973 8.17995 32.8603 7.20615 31.1864 7.20615V22.5922C32.8603 22.5922 33.6973 21.6055 33.6973 19.6319ZM33.6973 45.7298V31.5902C33.6973 29.6426 32.8603 28.6688 31.1864 28.6688V48.6902C32.8603 48.6902 33.6973 47.7034 33.6973 45.7298Z" fill="white"/>
<path d="M63.3143 55.8574H55.211V54.3382C54.1648 55.7665 52.4909 56.4806 50.1892 56.4806C48.5914 56.4806 47.2028 55.9093 46.0235 54.7667C44.8631 53.5981 44.283 52.079 44.283 50.2093V10.6339H52.3863V47.4047C52.3863 48.7811 52.8618 49.4692 53.8129 49.4692C54.745 49.4692 55.211 48.807 55.211 47.4827V10.6339H63.3143V55.8574Z" fill="white"/>
<path d="M73.1296 8.141H64.9978V0H73.1296V8.141ZM73.1296 55.8574H64.9978V10.6339H73.1296V55.8574Z" fill="white"/>
<path d="M83.0305 55.8574H74.8987V0H83.0305V55.8574Z" fill="white"/>
<path d="M103.888 55.8574H97.7535L97.0687 54.3382C95.6801 55.7665 94.1013 56.4806 92.3322 56.4806C90.2589 56.4806 88.4898 55.8184 87.0251 54.494C85.5795 53.1697 84.8566 51.3649 84.8566 49.0797V16.5936C84.8566 14.672 85.4273 13.1528 86.5686 12.0362C87.7289 10.8936 89.127 10.3223 90.7629 10.3223C93.0075 10.3223 94.6814 10.8806 95.7847 11.9973V0H103.888V55.8574ZM95.7847 47.4047V19.3203C95.7847 17.9959 95.3187 17.3337 94.3866 17.3337C93.4355 17.3337 92.96 18.0219 92.96 19.3982V47.4047C92.96 48.7811 93.4355 49.4692 94.3866 49.4692C95.3187 49.4692 95.7847 48.7811 95.7847 47.4047Z" fill="white"/>
<path d="M113.703 8.141H105.571V0H113.703V8.141ZM113.703 55.8574H105.571V10.6339H113.703V55.8574Z" fill="white"/>
<path d="M134.447 55.8574H126.315V19.554C126.315 18.1777 125.849 17.4895 124.917 17.4895C123.985 17.4895 123.519 18.1517 123.519 19.4761V55.8574H115.387V10.6339H123.519V12.1531C124.603 10.9326 126.277 10.3223 128.54 10.3223C130.005 10.3223 131.356 10.8676 132.592 11.9583C133.828 13.049 134.447 14.646 134.447 16.7494V55.8574Z" fill="white"/>
<path d="M137.671 65.4396V58.8956H144.262C146.183 58.8956 147.144 57.5323 147.144 54.8057C146.079 55.9223 144.405 56.4806 142.122 56.4806C140.524 56.4806 139.136 55.9093 137.956 54.7667C136.796 53.5981 136.216 52.079 136.216 50.2093V17.7232C136.216 12.7893 138.375 10.3223 142.693 10.3223C143.834 10.3223 145.337 10.9845 147.201 12.3089L148.257 10.6339H155.247V55.2341C155.247 58.1685 154.819 60.5965 153.963 62.5182C153.126 64.4658 150.501 65.4396 146.088 65.4396H137.671ZM147.144 47.7943V19.3982C147.144 18.0219 146.678 17.3337 145.746 17.3337C144.795 17.3337 144.319 18.0219 144.319 19.3982V47.7164C144.319 49.0927 144.795 49.7808 145.746 49.7808C146.678 49.7808 147.144 49.1186 147.144 47.7943Z" fill="white"/>
<path d="M183.609 55.8574H178.473C174.802 55.8574 172.605 55.1043 171.882 53.5981C171.159 52.092 170.798 49.1965 170.798 44.9118V17.3337H167.174V10.6339H170.798V1.51913H178.929V10.6339H183.323V17.3337H178.929V44.8339C178.929 46.1583 179.215 47.0542 179.785 47.5216C180.375 47.9631 181.65 48.1838 183.609 48.1838V55.8574Z" fill="white"/>
<path d="M204.209 55.8574H196.106V19.3982C196.106 18.0219 195.64 17.3337 194.708 17.3337C193.757 17.3337 193.281 17.9959 193.281 19.3203V55.8574H185.178V0H193.281V11.9973C194.252 10.8806 195.935 10.3223 198.332 10.3223C199.93 10.3223 201.309 10.8936 202.469 12.0362C203.629 13.1788 204.209 14.6979 204.209 16.5936V55.8574Z" fill="white"/>
<path d="M225.124 36.6929H214.196V47.2489C214.196 48.7811 214.671 49.5471 215.623 49.5471C216.555 49.5471 217.021 48.7811 217.021 47.2489V38.1341H225.124V47.3268C225.124 53.4293 221.938 56.4806 215.566 56.4806C209.25 56.4806 206.093 53.2995 206.093 46.9373V19.8656C206.093 13.5034 209.25 10.3223 215.566 10.3223C221.938 10.3223 225.124 13.3736 225.124 19.4761V36.6929ZM217.021 29.9152V19.554C217.021 18.0738 216.555 17.3337 215.623 17.3337C214.671 17.3337 214.196 18.0738 214.196 19.554V29.9152H217.021Z" fill="white"/>
<path d="M273.145 0L267.895 55.8574H257.252L254.028 25.0462L251.003 55.8574H241.816L236.737 0H244.812L247.094 25.7863L250.176 0H260.305L262.759 25.7863L265.783 0H273.145Z" fill="white"/>
<path d="M293.203 36.6929H282.275V47.2489C282.275 48.7811 282.751 49.5471 283.702 49.5471C284.634 49.5471 285.1 48.7811 285.1 47.2489V38.1341H293.203V47.3268C293.203 53.4293 290.017 56.4806 283.645 56.4806C277.33 56.4806 274.172 53.2995 274.172 46.9373V19.8656C274.172 13.5034 277.33 10.3223 283.645 10.3223C290.017 10.3223 293.203 13.3736 293.203 19.4761V36.6929ZM285.1 29.9152V19.554C285.1 18.0738 284.634 17.3337 283.702 17.3337C282.751 17.3337 282.275 18.0738 282.275 19.554V29.9152H285.1Z" fill="white"/>
<path d="M301.849 54.3382L301.164 55.8574H295.029V0H303.133V11.9973C304.103 10.8806 305.786 10.3223 308.183 10.3223C309.648 10.3223 310.989 10.8676 312.206 11.9583C313.443 13.023 314.061 14.5681 314.061 16.5936V49.0797C314.061 51.3649 313.329 53.1697 311.864 54.494C310.399 55.8184 308.64 56.4806 306.585 56.4806C304.987 56.4806 303.409 55.7665 301.849 54.3382ZM305.958 47.4047V19.3982C305.958 18.0219 305.492 17.3337 304.559 17.3337C303.608 17.3337 303.133 17.9959 303.133 19.3203V47.4047C303.133 48.7811 303.608 49.4692 304.559 49.4692C305.492 49.4692 305.958 48.7811 305.958 47.4047Z" fill="white"/>
<path d="M326.159 46.9373V19.8656C326.159 13.5034 329.383 10.3223 335.831 10.3223C338.323 10.3223 340.511 11.0624 342.394 12.5426C344.296 14.0228 345.247 16.3339 345.247 19.4761V47.3268C345.247 53.4293 342.109 56.4806 335.831 56.4806C329.383 56.4806 326.159 53.2995 326.159 46.9373ZM337.115 47.2489V19.554C337.115 18.0738 336.649 17.3337 335.717 17.3337C334.766 17.3337 334.291 18.0738 334.291 19.554V47.2489C334.291 48.7811 334.766 49.5471 335.717 49.5471C336.649 49.5471 337.115 48.7811 337.115 47.2489Z" fill="white"/>
<path d="M362.196 17.3337H357.516V55.8574H349.413V17.3337H346.674V10.6339H349.413C349.413 6.66082 349.774 3.89521 350.497 2.33713C351.239 0.779043 353.427 0 357.06 0H362.196V6.07653H360.626C359.238 6.07653 358.372 6.44009 358.03 7.16719C357.688 7.86833 357.516 9.02391 357.516 10.6339H362.196V17.3337Z" fill="white"/>
<path d="M392.469 7.28405H387.447V55.8574H378.459V7.28405H373.438V0H392.469V7.28405Z" fill="white"/>
<path d="M393.953 46.9373V19.8656C393.953 13.5034 397.177 10.3223 403.625 10.3223C406.117 10.3223 408.305 11.0624 410.188 12.5426C412.09 14.0228 413.041 16.3339 413.041 19.4761V47.3268C413.041 53.4293 409.903 56.4806 403.625 56.4806C397.177 56.4806 393.953 53.2995 393.953 46.9373ZM404.909 47.2489V19.554C404.909 18.0738 404.443 17.3337 403.511 17.3337C402.56 17.3337 402.085 18.0738 402.085 19.554V47.2489C402.085 48.7811 402.56 49.5471 403.511 49.5471C404.443 49.5471 404.909 48.7811 404.909 47.2489Z" fill="white"/>
<path d="M444.741 55.8574H436.638V19.7098C436.638 18.3335 436.172 17.6453 435.24 17.6453C434.289 17.6453 433.813 18.3075 433.813 19.6319V55.8574H425.71V19.6319C425.71 18.2556 425.244 17.5674 424.312 17.5674C423.361 17.5674 422.885 18.2296 422.885 19.554V55.8574H414.782V10.6339H422.885V12.231C424.007 10.9585 425.691 10.3223 427.935 10.3223C429.819 10.3223 431.531 11.3481 433.071 13.3995C434.498 11.3481 436.448 10.3223 438.921 10.3223C440.328 10.3223 441.65 10.9066 442.887 12.0752C444.123 13.2178 444.741 14.8148 444.741 16.8663V55.8574Z" fill="white"/>
<path d="M446.453 46.9373V19.8656C446.453 13.5034 449.677 10.3223 456.126 10.3223C458.618 10.3223 460.805 11.0624 462.688 12.5426C464.591 14.0228 465.542 16.3339 465.542 19.4761V47.3268C465.542 53.4293 462.403 56.4806 456.126 56.4806C449.677 56.4806 446.453 53.2995 446.453 46.9373ZM457.41 47.2489V19.554C457.41 18.0738 456.944 17.3337 456.012 17.3337C455.061 17.3337 454.585 18.0738 454.585 19.554V47.2489C454.585 48.7811 455.061 49.5471 456.012 49.5471C456.944 49.5471 457.41 48.7811 457.41 47.2489Z" fill="white"/>
<path d="M486.485 29.3699H478.353V19.554C478.353 18.1777 477.887 17.4895 476.955 17.4895C476.023 17.4895 475.557 18.1517 475.557 19.4761V55.8574H467.425V10.6339H475.557V12.1531C476.641 10.9326 478.315 10.3223 480.578 10.3223C482.195 10.3223 483.584 10.9196 484.744 12.1141C485.905 13.2827 486.485 14.8278 486.485 16.7494V29.3699Z" fill="white"/>
<path d="M507.314 29.3699H499.182V19.554C499.182 18.1777 498.716 17.4895 497.784 17.4895C496.852 17.4895 496.386 18.1517 496.386 19.4761V55.8574H488.254V10.6339H496.386V12.1531C497.47 10.9326 499.144 10.3223 501.407 10.3223C503.024 10.3223 504.413 10.9196 505.573 12.1141C506.734 13.2827 507.314 14.8278 507.314 16.7494V29.3699Z" fill="white"/>
<path d="M508.712 46.9373V19.8656C508.712 13.5034 511.936 10.3223 518.384 10.3223C520.876 10.3223 523.064 11.0624 524.947 12.5426C526.849 14.0228 527.8 16.3339 527.8 19.4761V47.3268C527.8 53.4293 524.662 56.4806 518.384 56.4806C511.936 56.4806 508.712 53.2995 508.712 46.9373ZM519.668 47.2489V19.554C519.668 18.0738 519.202 17.3337 518.27 17.3337C517.319 17.3337 516.844 18.0738 516.844 19.554V47.2489C516.844 48.7811 517.319 49.5471 518.27 49.5471C519.202 49.5471 519.668 48.7811 519.668 47.2489Z" fill="white"/>
<path d="M563.267 10.6339L557.589 55.8574H548.658L546.118 37.3551L543.807 55.8574H534.448L528.77 10.6339H536.617L539.413 35.2127L541.924 10.6339H550.113L552.624 35.2127L555.42 10.6339H563.267Z" fill="white"/>
<path d="M567.119 62.5571L565.492 60.7264C566.767 58.9865 567.461 57.3635 567.575 55.8574H564.379V47.7164H571.798V53.2865C571.798 56.6624 570.238 59.7526 567.119 62.5571Z" fill="white"/>
<path d="M602.87 7.28405H597.848V55.8574H588.861V7.28405H583.839V0H602.87V7.28405Z" fill="white"/>
<path d="M604.354 46.9373V19.8656C604.354 13.5034 607.578 10.3223 614.027 10.3223C616.518 10.3223 618.706 11.0624 620.589 12.5426C622.491 14.0228 623.442 16.3339 623.442 19.4761V47.3268C623.442 53.4293 620.304 56.4806 614.027 56.4806C607.578 56.4806 604.354 53.2995 604.354 46.9373ZM615.31 47.2489V19.554C615.31 18.0738 614.844 17.3337 613.912 17.3337C612.961 17.3337 612.486 18.0738 612.486 19.554V47.2489C612.486 48.7811 612.961 49.5471 613.912 49.5471C614.844 49.5471 615.31 48.7811 615.31 47.2489Z" fill="white"/>
<path d="M644.129 55.8574H637.994L637.309 54.3382C635.921 55.7665 634.342 56.4806 632.573 56.4806C630.499 56.4806 628.73 55.8184 627.266 54.494C625.82 53.1697 625.097 51.3649 625.097 49.0797V16.5936C625.097 14.672 625.668 13.1528 626.809 12.0362C627.97 10.8936 629.368 10.3223 631.004 10.3223C633.248 10.3223 634.922 10.8806 636.025 11.9973V0H644.129V55.8574ZM636.025 47.4047V19.3203C636.025 17.9959 635.559 17.3337 634.627 17.3337C633.676 17.3337 633.201 18.0219 633.201 19.3982V47.4047C633.201 48.7811 633.676 49.4692 634.627 49.4692C635.559 49.4692 636.025 48.7811 636.025 47.4047Z" fill="white"/>
<path d="M665.129 55.8574H657.939V54.1045C657.33 55.6886 655.589 56.4806 652.717 56.4806C648.285 56.4806 646.069 54.1175 646.069 49.3913V40.3155C646.069 38.2899 646.602 36.5241 647.667 35.018C648.751 33.5118 650.919 31.6291 654.172 29.3699C656.055 28.0715 656.997 27.0328 656.997 26.2537V19.554C656.997 18.0738 656.531 17.3337 655.599 17.3337C654.534 17.3337 654.001 19.1385 654.001 22.748C654.001 23.3972 654.03 24.3581 654.087 25.6305C654.163 26.9029 654.201 27.8638 654.201 28.513H646.354V19.4761C646.354 13.3736 649.588 10.3223 656.055 10.3223C662.104 10.3223 665.129 13.5034 665.129 19.8656V55.8574ZM656.997 47.4047V35.7581C655.133 36.3813 654.201 37.5239 654.201 39.1858V47.4047C654.201 48.7811 654.686 49.4692 655.656 49.4692C656.55 49.4692 656.997 48.7811 656.997 47.4047Z" fill="white"/>
<path d="M688.497 10.6339L682.191 55.6236C681.545 60.22 680.67 62.9986 679.566 63.9594C678.482 64.9462 676.97 65.4396 675.03 65.4396H669.352V59.3631C671.482 59.3631 672.804 59.2202 673.318 58.9346C673.831 58.6489 674.088 57.805 674.088 56.4027C674.088 55.0004 672.918 47.6904 670.579 34.4726L666.356 10.6339H674.488L677.883 34.5505L680.565 10.6339H688.497Z" fill="white"/>
<path d="M697 29.0583H689.581V20.9173H697V29.0583ZM697 55.9353H689.581V47.7943H697V55.9353Z" fill="white"/>
<path d="M70.79 140.418H53.2137V84.5604H70.6758V91.7666H62.2016V106.841H69.8484V113.619H62.2016V133.251H70.79V140.418Z" fill="white"/>
<path d="M102.205 140.418H94.1013V104.27C94.1013 102.894 93.6352 102.206 92.7032 102.206C91.7521 102.206 91.2765 102.868 91.2765 104.192V140.418H83.1732V104.192C83.1732 102.816 82.7072 102.128 81.7751 102.128C80.824 102.128 80.3484 102.79 80.3484 104.114V140.418H72.2451V95.1943H80.3484V96.7914C81.4707 95.5189 83.1542 94.8827 85.3988 94.8827C87.2819 94.8827 88.9939 95.9085 90.5347 97.9599C91.9613 95.9085 93.9111 94.8827 96.3839 94.8827C97.7915 94.8827 99.1135 95.467 100.35 96.6356C101.586 97.7782 102.205 99.3752 102.205 101.427V140.418Z" fill="white"/>
<path d="M112.163 139.366V150H104.059V95.1943H110.194L110.879 97.0251C112.21 95.5969 113.789 94.8827 115.615 94.8827C117.46 94.8827 119.163 95.5189 120.722 96.7914C122.301 98.0638 123.091 99.8946 123.091 102.284V134.77C123.091 136.665 122.52 138.185 121.379 139.327C120.237 140.47 118.849 141.041 117.213 141.041C114.949 141.041 113.266 140.483 112.163 139.366ZM114.987 131.965V103.959C114.987 102.582 114.521 101.894 113.589 101.894C112.638 101.894 112.163 102.582 112.163 103.959V132.043C112.163 133.367 112.638 134.03 113.589 134.03C114.521 134.03 114.987 133.341 114.987 131.965Z" fill="white"/>
<path d="M124.746 131.498V104.426C124.746 98.0638 127.97 94.8827 134.418 94.8827C136.91 94.8827 139.098 95.6228 140.981 97.103C142.883 98.5832 143.834 100.894 143.834 104.036V131.887C143.834 137.99 140.695 141.041 134.418 141.041C127.97 141.041 124.746 137.86 124.746 131.498ZM135.702 131.809V104.114C135.702 102.634 135.236 101.894 134.304 101.894C133.353 101.894 132.877 102.634 132.877 104.114V131.809C132.877 133.341 133.353 134.108 134.304 134.108C135.236 134.108 135.702 133.341 135.702 131.809Z" fill="white"/>
<path d="M179.3 95.1943L173.622 140.418H164.692L162.152 121.916L159.841 140.418H150.482L144.804 95.1943H152.651L155.447 119.773L157.958 95.1943H166.147L168.658 119.773L171.454 95.1943H179.3Z" fill="white"/>
<path d="M199.473 121.253H188.545V131.809C188.545 133.341 189.02 134.108 189.972 134.108C190.904 134.108 191.37 133.341 191.37 131.809V122.695H199.473V131.887C199.473 137.99 196.287 141.041 189.915 141.041C183.599 141.041 180.442 137.86 180.442 131.498V104.426C180.442 98.0638 183.599 94.8827 189.915 94.8827C196.287 94.8827 199.473 97.934 199.473 104.036V121.253ZM191.37 114.476V104.114C191.37 102.634 190.904 101.894 189.972 101.894C189.02 101.894 188.545 102.634 188.545 104.114V114.476H191.37Z" fill="white"/>
<path d="M220.587 113.93H212.455V104.114C212.455 102.738 211.989 102.05 211.057 102.05C210.125 102.05 209.659 102.712 209.659 104.036V140.418H201.527V95.1943H209.659V96.7135C210.743 95.493 212.417 94.8827 214.681 94.8827C216.298 94.8827 217.686 95.48 218.847 96.6745C220.007 97.8431 220.587 99.3882 220.587 101.31V113.93Z" fill="white"/>
<path d="M230.146 92.7014H222.014V84.5604H230.146V92.7014ZM230.146 140.418H222.014V95.1943H230.146V140.418Z" fill="white"/>
<path d="M250.889 140.418H242.757V104.114C242.757 102.738 242.291 102.05 241.359 102.05C240.427 102.05 239.961 102.712 239.961 104.036V140.418H231.829V95.1943H239.961V96.7135C241.045 95.493 242.719 94.8827 244.983 94.8827C246.448 94.8827 247.798 95.4281 249.035 96.5187C250.271 97.6094 250.889 99.2064 250.889 101.31V140.418Z" fill="white"/>
<path d="M254.113 150V143.456H260.704C262.626 143.456 263.586 142.093 263.586 139.366C262.521 140.483 260.847 141.041 258.565 141.041C256.967 141.041 255.578 140.47 254.399 139.327C253.238 138.159 252.658 136.639 252.658 134.77V102.284C252.658 97.3497 254.817 94.8827 259.135 94.8827C260.276 94.8827 261.779 95.5449 263.643 96.8693L264.699 95.1943H271.69V139.795C271.69 142.729 271.262 145.157 270.406 147.079C269.569 149.026 266.944 150 262.531 150H254.113ZM263.586 132.355V103.959C263.586 102.582 263.12 101.894 262.188 101.894C261.237 101.894 260.762 102.582 260.762 103.959V132.277C260.762 133.653 261.237 134.341 262.188 134.341C263.12 134.341 263.586 133.679 263.586 132.355Z" fill="white"/>
<path d="M283.93 140.418V84.5604H295.115C297.55 84.5604 299.718 85.4693 301.621 87.2871C303.523 89.0789 304.474 91.8445 304.474 95.5839V129.394C304.474 132.874 303.58 135.588 301.792 137.535C300.023 139.457 297.816 140.418 295.172 140.418H283.93ZM295.429 130.29V94.688C295.429 92.7404 294.592 91.7666 292.918 91.7666V133.251C294.592 133.251 295.429 132.264 295.429 130.29Z" fill="white"/>
<path d="M314.261 92.7014H306.129V84.5604H314.261V92.7014ZM314.261 140.418H306.129V95.1943H314.261V140.418Z" fill="white"/>
<path d="M317.399 150V143.456H323.99C325.911 143.456 326.872 142.093 326.872 139.366C325.807 140.483 324.133 141.041 321.85 141.041C320.252 141.041 318.864 140.47 317.685 139.327C316.524 138.159 315.944 136.639 315.944 134.77V102.284C315.944 97.3497 318.103 94.8827 322.421 94.8827C323.562 94.8827 325.065 95.5449 326.929 96.8693L327.985 95.1943H334.975V139.795C334.975 142.729 334.547 145.157 333.691 147.079C332.854 149.026 330.229 150 325.816 150H317.399ZM326.872 132.355V103.959C326.872 102.582 326.406 101.894 325.474 101.894C324.523 101.894 324.047 102.582 324.047 103.959V132.277C324.047 133.653 324.523 134.341 325.474 134.341C326.406 134.341 326.872 133.679 326.872 132.355Z" fill="white"/>
<path d="M344.791 92.7014H336.659V84.5604H344.791V92.7014ZM344.791 140.418H336.659V95.1943H344.791V140.418Z" fill="white"/>
<path d="M362.595 140.418H357.459C353.788 140.418 351.591 139.665 350.868 138.159C350.145 136.652 349.784 133.757 349.784 129.472V101.894H346.16V95.1943H349.784V86.0795H357.916V95.1943H362.31V101.894H357.916V129.394C357.916 130.719 358.201 131.615 358.772 132.082C359.361 132.523 360.636 132.744 362.595 132.744V140.418Z" fill="white"/>
<path d="M383.31 140.418H376.12V138.665C375.511 140.249 373.771 141.041 370.898 141.041C366.466 141.041 364.25 138.678 364.25 133.952V124.876C364.25 122.85 364.783 121.085 365.848 119.578C366.932 118.072 369.101 116.19 372.353 113.93C374.237 112.632 375.178 111.593 375.178 110.814V104.114C375.178 102.634 374.712 101.894 373.78 101.894C372.715 101.894 372.182 103.699 372.182 107.308C372.182 107.958 372.211 108.918 372.268 110.191C372.344 111.463 372.382 112.424 372.382 113.073H364.535V104.036C364.535 97.934 367.769 94.8827 374.237 94.8827C380.286 94.8827 383.31 98.0638 383.31 104.426V140.418ZM375.178 131.965V120.318C373.314 120.942 372.382 122.084 372.382 123.746V131.965C372.382 133.341 372.867 134.03 373.837 134.03C374.731 134.03 375.178 133.341 375.178 131.965Z" fill="white"/>
<path d="M393.439 140.418H385.307V84.5604H393.439V140.418Z" fill="white"/>
<path d="M423.399 140.418H405.822V84.5604H423.285V91.7666H414.81V106.841H422.457V113.619H414.81V133.251H423.399V140.418Z" fill="white"/>
<path d="M446.567 140.418H437.608L434.812 128.148L432.187 140.418H424.055L430.418 116.501L424.226 95.1943H432.815L435.582 106.919L437.779 95.1943H445.512L440.062 117.046L446.567 140.418Z" fill="white"/>
<path d="M455.755 139.366V150H447.652V95.1943H453.786L454.471 97.0251C455.802 95.5969 457.381 94.8827 459.207 94.8827C461.053 94.8827 462.755 95.5189 464.315 96.7914C465.894 98.0638 466.683 99.8946 466.683 102.284V134.77C466.683 136.665 466.112 138.185 464.971 139.327C463.83 140.47 462.441 141.041 460.805 141.041C458.542 141.041 456.858 140.483 455.755 139.366ZM458.58 131.965V103.959C458.58 102.582 458.114 101.894 457.182 101.894C456.23 101.894 455.755 102.582 455.755 103.959V132.043C455.755 133.367 456.23 134.03 457.182 134.03C458.114 134.03 458.58 133.341 458.58 131.965Z" fill="white"/>
<path d="M487.54 121.253H476.612V131.809C476.612 133.341 477.088 134.108 478.039 134.108C478.971 134.108 479.437 133.341 479.437 131.809V122.695H487.54V131.887C487.54 137.99 484.354 141.041 477.982 141.041C471.667 141.041 468.509 137.86 468.509 131.498V104.426C468.509 98.0638 471.667 94.8827 477.982 94.8827C484.354 94.8827 487.54 97.934 487.54 104.036V121.253ZM479.437 114.476V104.114C479.437 102.634 478.971 101.894 478.039 101.894C477.088 101.894 476.612 102.634 476.612 104.114V114.476H479.437Z" fill="white"/>
<path d="M508.655 113.93H500.523V104.114C500.523 102.738 500.057 102.05 499.125 102.05C498.193 102.05 497.727 102.712 497.727 104.036V140.418H489.595V95.1943H497.727V96.7135C498.811 95.493 500.485 94.8827 502.748 94.8827C504.365 94.8827 505.754 95.48 506.914 96.6745C508.075 97.8431 508.655 99.3882 508.655 101.31V113.93Z" fill="white"/>
<path d="M518.213 92.7014H510.081V84.5604H518.213V92.7014ZM518.213 140.418H510.081V95.1943H518.213V140.418Z" fill="white"/>
<path d="M538.957 121.253H528.029V131.809C528.029 133.341 528.504 134.108 529.455 134.108C530.387 134.108 530.853 133.341 530.853 131.809V122.695H538.957V131.887C538.957 137.99 535.77 141.041 529.398 141.041C523.083 141.041 519.925 137.86 519.925 131.498V104.426C519.925 98.0638 523.083 94.8827 529.398 94.8827C535.77 94.8827 538.957 97.934 538.957 104.036V121.253ZM530.853 114.476V104.114C530.853 102.634 530.387 101.894 529.455 101.894C528.504 101.894 528.029 102.634 528.029 104.114V114.476H530.853Z" fill="white"/>
<path d="M559.843 140.418H551.711V104.114C551.711 102.738 551.245 102.05 550.313 102.05C549.381 102.05 548.915 102.712 548.915 104.036V140.418H540.783V95.1943H548.915V96.7135C549.999 95.493 551.673 94.8827 553.936 94.8827C555.401 94.8827 556.752 95.4281 557.988 96.5187C559.224 97.6094 559.843 99.2064 559.843 101.31V140.418Z" fill="white"/>
<path d="M580.643 115.216H572.54V104.114C572.54 102.634 572.074 101.894 571.142 101.894C570.191 101.894 569.715 102.634 569.715 104.114V131.809C569.715 133.341 570.191 134.108 571.142 134.108C572.074 134.108 572.54 133.341 572.54 131.809V120.864H580.643V131.887C580.643 137.99 577.514 141.041 571.256 141.041C564.826 141.041 561.612 137.86 561.612 131.498V104.426C561.612 98.0638 564.826 94.8827 571.256 94.8827C577.514 94.8827 580.643 97.934 580.643 104.036V115.216Z" fill="white"/>
<path d="M601.501 121.253H590.573V131.809C590.573 133.341 591.048 134.108 591.999 134.108C592.931 134.108 593.397 133.341 593.397 131.809V122.695H601.501V131.887C601.501 137.99 598.314 141.041 591.942 141.041C585.627 141.041 582.469 137.86 582.469 131.498V104.426C582.469 98.0638 585.627 94.8827 591.942 94.8827C598.314 94.8827 601.501 97.934 601.501 104.036V121.253ZM593.397 114.476V104.114C593.397 102.634 592.931 101.894 591.999 101.894C591.048 101.894 590.573 102.634 590.573 104.114V114.476H593.397Z" fill="white"/>
<path d="M603.327 122.227H611.43V131.809C611.43 133.341 611.887 134.108 612.8 134.108C613.713 134.108 614.169 132.64 614.169 129.706C614.169 125.889 613.608 123.422 612.486 122.305C608.244 119.267 605.685 117.15 604.81 115.956C603.935 114.735 603.498 112.918 603.498 110.503V104.426C603.498 98.0638 606.656 94.8827 612.971 94.8827C619.115 94.8827 622.187 97.934 622.187 104.036V112.957H614.255L614.426 107.542C614.426 103.777 613.922 101.894 612.914 101.894C611.906 101.894 611.402 103.076 611.402 105.439C611.402 107.88 611.62 109.723 612.058 110.97C612.514 112.216 615.006 114.359 619.533 117.397C621.417 119.241 622.358 121.682 622.358 124.72V131.498C622.358 137.86 619.153 141.041 612.743 141.041C606.465 141.041 603.327 137.99 603.327 131.887V122.227Z" fill="white"/>
<path d="M644.385 84.5604L636.111 103.959L632.658 103.18L636.453 84.5604H644.385ZM635.512 84.5604L627.209 103.959L623.756 103.18L627.58 84.5604H635.512Z" fill="white"/>
</svg>
