<svg width="638" height="193" viewBox="0 0 638 193" fill="none" xmlns="http://www.w3.org/2000/svg">
<path d="M18.883 0L11.3089 24.959L8.14868 23.9566L11.6223 0H18.883ZM10.7604 0L3.16023 24.959L0 23.9566L3.49975 0H10.7604Z" fill="white"/>
<path d="M20.3195 71.8698V0H30.0091C32.3248 0 34.3359 1.01907 36.0422 3.05722C37.7486 5.06196 38.6018 8.28624 38.6018 12.7301V22.7036C38.6018 27.7489 36.9999 31.3073 33.7961 33.3789C37.174 34.9827 38.8629 38.4408 38.8629 43.7534V57.6863C38.8629 62.4308 38.0533 65.9892 36.434 68.3615C34.8321 70.7004 32.9168 71.8698 30.6881 71.8698H20.3195ZM30.8448 25.2597V13.0308C30.8448 10.5249 30.0787 9.27191 28.5465 9.27191V29.0687C30.0787 29.0687 30.8448 27.799 30.8448 25.2597ZM30.8448 58.839V40.646C30.8448 38.1401 30.0787 36.8872 28.5465 36.8872V62.648C30.0787 62.648 30.8448 61.3784 30.8448 58.839Z" fill="white"/>
<path d="M57.9549 71.8698H50.5375V69.9152C49.5799 71.7529 48.0476 72.6717 45.9408 72.6717C44.4782 72.6717 43.2072 71.9366 42.1276 70.4665C41.0655 68.9629 40.5345 67.0083 40.5345 64.6026V13.6823H47.9519V60.9941C47.9519 62.765 48.3871 63.6504 49.2577 63.6504C50.1109 63.6504 50.5375 62.7984 50.5375 61.0943V13.6823H57.9549V71.8698Z" fill="white"/>
<path d="M66.9393 10.4747H59.4958V0H66.9393V10.4747ZM66.9393 71.8698H59.4958V13.6823H66.9393V71.8698Z" fill="white"/>
<path d="M76.0021 71.8698H68.5586V0H76.0021V71.8698Z" fill="white"/>
<path d="M95.0941 71.8698H89.4788L88.852 69.9152C87.5809 71.7529 86.1357 72.6717 84.5165 72.6717C82.6186 72.6717 80.9993 71.8197 79.6586 70.1157C78.3353 68.4116 77.6736 66.0895 77.6736 63.1492V21.3504C77.6736 18.8779 78.196 16.9233 79.2407 15.4866C80.3028 14.0165 81.5826 13.2814 83.08 13.2814C85.1346 13.2814 86.6668 13.9997 87.6767 15.4365V0H95.0941V71.8698ZM87.6767 60.9941V24.8587C87.6767 23.1547 87.2501 22.3027 86.3969 22.3027C85.5263 22.3027 85.091 23.1881 85.091 24.959V60.9941C85.091 62.765 85.5263 63.6504 86.3969 63.6504C87.2501 63.6504 87.6767 62.765 87.6767 60.9941Z" fill="white"/>
<path d="M104.079 10.4747H96.635V0H104.079V10.4747ZM104.079 71.8698H96.635V13.6823H104.079V71.8698Z" fill="white"/>
<path d="M123.066 71.8698H115.622V25.1594C115.622 23.3886 115.196 22.5032 114.343 22.5032C113.49 22.5032 113.063 23.3552 113.063 25.0592V71.8698H105.619V13.6823H113.063V15.6369C114.055 14.0666 115.588 13.2814 117.66 13.2814C119 13.2814 120.237 13.983 121.368 15.3864C122.5 16.7897 123.066 18.8445 123.066 21.5509V71.8698Z" fill="white"/>
<path d="M126.017 84.1989V75.779H132.05C133.809 75.779 134.688 74.0249 134.688 70.5166C133.713 71.9533 132.181 72.6717 130.092 72.6717C128.629 72.6717 127.358 71.9366 126.278 70.4665C125.216 68.9629 124.685 67.0083 124.685 64.6026V22.8039C124.685 16.4555 126.662 13.2814 130.614 13.2814C131.659 13.2814 133.034 14.1334 134.741 15.8374L135.707 13.6823H142.106V71.0679C142.106 74.8435 141.714 77.9675 140.93 80.4401C140.164 82.946 137.761 84.1989 133.722 84.1989H126.017ZM134.688 61.4953V24.959C134.688 23.1881 134.262 22.3027 133.409 22.3027C132.538 22.3027 132.103 23.1881 132.103 24.959V61.3951C132.103 63.1659 132.538 64.0513 133.409 64.0513C134.262 64.0513 134.688 63.1993 134.688 61.4953Z" fill="white"/>
<path d="M168.067 71.8698H163.365C160.005 71.8698 157.994 70.9008 157.332 68.9629C156.671 67.025 156.34 63.2996 156.34 57.7865V22.3027H153.023V13.6823H156.34V1.95462H163.783V13.6823H167.805V22.3027H163.783V57.6863C163.783 59.3903 164.044 60.543 164.567 61.1445C165.107 61.7125 166.273 61.9965 168.067 61.9965V71.8698Z" fill="white"/>
<path d="M186.923 71.8698H179.506V24.959C179.506 23.1881 179.079 22.3027 178.226 22.3027C177.356 22.3027 176.92 23.1547 176.92 24.8587V71.8698H169.503V0H176.92V15.4365C177.808 13.9997 179.349 13.2814 181.543 13.2814C183.006 13.2814 184.268 14.0165 185.33 15.4866C186.392 16.9567 186.923 18.9113 186.923 21.3504V71.8698Z" fill="white"/>
<path d="M206.068 47.2115H196.065V60.7936C196.065 62.765 196.5 63.7506 197.37 63.7506C198.224 63.7506 198.65 62.765 198.65 60.7936V49.0659H206.068V60.8939C206.068 68.7458 203.151 72.6717 197.318 72.6717C191.538 72.6717 188.647 68.5787 188.647 60.3927V25.5604C188.647 17.3744 191.538 13.2814 197.318 13.2814C203.151 13.2814 206.068 17.2073 206.068 25.0592V47.2115ZM198.65 38.4909V25.1594C198.65 23.2549 198.224 22.3027 197.37 22.3027C196.5 22.3027 196.065 23.2549 196.065 25.1594V38.4909H198.65Z" fill="white"/>
<path d="M250.023 0L245.218 71.8698H235.476L232.525 32.2261L229.756 71.8698H221.346L216.697 0H224.089L226.178 33.1784L228.999 0H238.271L240.517 33.1784L243.285 0H250.023Z" fill="white"/>
<path d="M268.384 47.2115H258.381V60.7936C258.381 62.765 258.816 63.7506 259.687 63.7506C260.54 63.7506 260.967 62.765 260.967 60.7936V49.0659H268.384V60.8939C268.384 68.7458 265.468 72.6717 259.635 72.6717C253.854 72.6717 250.964 68.5787 250.964 60.3927V25.5604C250.964 17.3744 253.854 13.2814 259.635 13.2814C265.468 13.2814 268.384 17.2073 268.384 25.0592V47.2115ZM260.967 38.4909V25.1594C260.967 23.2549 260.54 22.3027 259.687 22.3027C258.816 22.3027 258.381 23.2549 258.381 25.1594V38.4909H260.967Z" fill="white"/>
<path d="M276.298 69.9152L275.671 71.8698H270.056V0H277.473V15.4365C278.361 13.9997 279.902 13.2814 282.096 13.2814C283.437 13.2814 284.664 13.983 285.778 15.3864C286.91 16.7563 287.476 18.7443 287.476 21.3504V63.1492C287.476 66.0895 286.806 68.4116 285.465 70.1157C284.124 71.8197 282.514 72.6717 280.633 72.6717C279.171 72.6717 277.726 71.7529 276.298 69.9152ZM280.059 60.9941V24.959C280.059 23.1881 279.632 22.3027 278.779 22.3027C277.908 22.3027 277.473 23.1547 277.473 24.8587V60.9941C277.473 62.765 277.908 63.6504 278.779 63.6504C279.632 63.6504 280.059 62.765 280.059 60.9941Z" fill="white"/>
<path d="M298.55 60.3927V25.5604C298.55 17.3744 301.501 13.2814 307.404 13.2814C309.685 13.2814 311.687 14.2336 313.411 16.1381C315.152 18.0426 316.023 21.0163 316.023 25.0592V60.8939C316.023 68.7458 313.15 72.6717 307.404 72.6717C301.501 72.6717 298.55 68.5787 298.55 60.3927ZM308.579 60.7936V25.1594C308.579 23.2549 308.152 22.3027 307.299 22.3027C306.429 22.3027 305.993 23.2549 305.993 25.1594V60.7936C305.993 62.765 306.429 63.7506 307.299 63.7506C308.152 63.7506 308.579 62.765 308.579 60.7936Z" fill="white"/>
<path d="M331.536 22.3027H327.253V71.8698H319.836V22.3027H317.328V13.6823H319.836C319.836 8.57025 320.167 5.01184 320.828 3.0071C321.507 1.00237 323.51 0 326.835 0H331.536V7.81847H330.1C328.829 7.81847 328.037 8.28624 327.723 9.22179C327.41 10.1239 327.253 11.6108 327.253 13.6823H331.536V22.3027Z" fill="white"/>
<path d="M359.247 9.37214H354.65V71.8698H346.423V9.37214H341.827V0H359.247V9.37214Z" fill="white"/>
<path d="M360.605 60.3927V25.5604C360.605 17.3744 363.557 13.2814 369.459 13.2814C371.74 13.2814 373.742 14.2336 375.466 16.1381C377.207 18.0426 378.078 21.0163 378.078 25.0592V60.8939C378.078 68.7458 375.205 72.6717 369.459 72.6717C363.557 72.6717 360.605 68.5787 360.605 60.3927ZM370.634 60.7936V25.1594C370.634 23.2549 370.208 22.3027 369.355 22.3027C368.484 22.3027 368.049 23.2549 368.049 25.1594V60.7936C368.049 62.765 368.484 63.7506 369.355 63.7506C370.208 63.7506 370.634 62.765 370.634 60.7936Z" fill="white"/>
<path d="M407.095 71.8698H399.677V25.3599C399.677 23.5891 399.251 22.7036 398.397 22.7036C397.527 22.7036 397.092 23.5557 397.092 25.2597V71.8698H389.674V25.2597C389.674 23.4888 389.248 22.6034 388.394 22.6034C387.524 22.6034 387.088 23.4554 387.088 25.1594V71.8698H379.671V13.6823H387.088V15.7372C388.116 14.1 389.657 13.2814 391.711 13.2814C393.435 13.2814 395.002 14.6012 396.412 17.2407C397.718 14.6012 399.503 13.2814 401.767 13.2814C403.055 13.2814 404.265 14.0332 405.397 15.5367C406.529 17.0068 407.095 19.0617 407.095 21.7013V71.8698Z" fill="white"/>
<path d="M408.662 60.3927V25.5604C408.662 17.3744 411.613 13.2814 417.515 13.2814C419.796 13.2814 421.799 14.2336 423.523 16.1381C425.264 18.0426 426.134 21.0163 426.134 25.0592V60.8939C426.134 68.7458 423.261 72.6717 417.515 72.6717C411.613 72.6717 408.662 68.5787 408.662 60.3927ZM418.691 60.7936V25.1594C418.691 23.2549 418.264 22.3027 417.411 22.3027C416.54 22.3027 416.105 23.2549 416.105 25.1594V60.7936C416.105 62.765 416.54 63.7506 417.411 63.7506C418.264 63.7506 418.691 62.765 418.691 60.7936Z" fill="white"/>
<path d="M445.305 37.7893H437.861V25.1594C437.861 23.3886 437.434 22.5032 436.581 22.5032C435.728 22.5032 435.302 23.3552 435.302 25.0592V71.8698H427.858V13.6823H435.302V15.6369C436.294 14.0666 437.826 13.2814 439.898 13.2814C441.378 13.2814 442.649 14.0499 443.711 15.5868C444.774 17.0904 445.305 19.0784 445.305 21.5509V37.7893Z" fill="white"/>
<path d="M464.37 37.7893H456.927V25.1594C456.927 23.3886 456.5 22.5032 455.647 22.5032C454.794 22.5032 454.367 23.3552 454.367 25.0592V71.8698H446.924V13.6823H454.367V15.6369C455.36 14.0666 456.892 13.2814 458.964 13.2814C460.444 13.2814 461.715 14.0499 462.777 15.5868C463.839 17.0904 464.37 19.0784 464.37 21.5509V37.7893Z" fill="white"/>
<path d="M465.65 60.3927V25.5604C465.65 17.3744 468.601 13.2814 474.504 13.2814C476.785 13.2814 478.787 14.2336 480.511 16.1381C482.252 18.0426 483.123 21.0163 483.123 25.0592V60.8939C483.123 68.7458 480.25 72.6717 474.504 72.6717C468.601 72.6717 465.65 68.5787 465.65 60.3927ZM475.679 60.7936V25.1594C475.679 23.2549 475.253 22.3027 474.4 22.3027C473.529 22.3027 473.094 23.2549 473.094 25.1594V60.7936C473.094 62.765 473.529 63.7506 474.4 63.7506C475.253 63.7506 475.679 62.765 475.679 60.7936Z" fill="white"/>
<path d="M515.587 13.6823L510.39 71.8698H502.215L499.89 48.0636L497.775 71.8698H489.208L484.011 13.6823H491.193L493.753 45.307L496.051 13.6823H503.547L505.845 45.307L508.405 13.6823H515.587Z" fill="white"/>
<path d="M519.113 80.4902L517.624 78.1346C518.791 75.896 519.426 73.8077 519.531 71.8698H516.606V61.3951H523.396V68.562C523.396 72.9056 521.968 76.8816 519.113 80.4902Z" fill="white"/>
<path d="M551.838 9.37214H547.241V71.8698H539.014V9.37214H534.418V0H551.838V9.37214Z" fill="white"/>
<path d="M553.196 60.3927V25.5604C553.196 17.3744 556.148 13.2814 562.05 13.2814C564.331 13.2814 566.333 14.2336 568.057 16.1381C569.798 18.0426 570.669 21.0163 570.669 25.0592V60.8939C570.669 68.7458 567.796 72.6717 562.05 72.6717C556.148 72.6717 553.196 68.5787 553.196 60.3927ZM563.225 60.7936V25.1594C563.225 23.2549 562.799 22.3027 561.946 22.3027C561.075 22.3027 560.64 23.2549 560.64 25.1594V60.7936C560.64 62.765 561.075 63.7506 561.946 63.7506C562.799 63.7506 563.225 62.765 563.225 60.7936Z" fill="white"/>
<path d="M589.604 71.8698H583.989L583.362 69.9152C582.091 71.7529 580.646 72.6717 579.027 72.6717C577.129 72.6717 575.509 71.8197 574.169 70.1157C572.845 68.4116 572.184 66.0895 572.184 63.1492V21.3504C572.184 18.8779 572.706 16.9233 573.751 15.4866C574.813 14.0165 576.093 13.2814 577.59 13.2814C579.645 13.2814 581.177 13.9997 582.187 15.4365V0H589.604V71.8698ZM582.187 60.9941V24.8587C582.187 23.1547 581.76 22.3027 580.907 22.3027C580.036 22.3027 579.601 23.1881 579.601 24.959V60.9941C579.601 62.765 580.036 63.6504 580.907 63.6504C581.76 63.6504 582.187 62.765 582.187 60.9941Z" fill="white"/>
<path d="M608.827 71.8698H602.245V69.6145C601.688 71.6526 600.095 72.6717 597.465 72.6717C593.409 72.6717 591.38 69.6312 591.38 63.5501V51.8726C591.38 49.2664 591.868 46.9944 592.843 45.0565C593.835 43.1185 595.82 40.6962 598.797 37.7893C600.521 36.1187 601.383 34.7822 601.383 33.7798V25.1594C601.383 23.2549 600.957 22.3027 600.103 22.3027C599.128 22.3027 598.641 24.6248 598.641 29.2692C598.641 30.1045 598.667 31.3407 598.719 32.9779C598.789 34.6151 598.824 35.8514 598.824 36.6867H591.641V25.0592C591.641 17.2073 594.601 13.2814 600.521 13.2814C606.058 13.2814 608.827 17.3744 608.827 25.5604V71.8698ZM601.383 60.9941V46.0087C599.677 46.8106 598.824 48.2807 598.824 50.4191V60.9941C598.824 62.765 599.268 63.6504 600.156 63.6504C600.974 63.6504 601.383 62.765 601.383 60.9941Z" fill="white"/>
<path d="M630.217 13.6823L624.445 71.5691C623.853 77.4831 623.052 81.0582 622.042 82.2944C621.05 83.5641 619.665 84.1989 617.889 84.1989H612.692V76.3805C614.642 76.3805 615.852 76.1967 616.322 75.8292C616.792 75.4616 617.028 74.3757 617.028 72.5715C617.028 70.7672 615.957 61.3616 613.815 44.3548L609.95 13.6823H617.393L620.501 44.455L622.956 13.6823H630.217Z" fill="white"/>
<path d="M638 37.3883H631.209V26.9136H638V37.3883ZM638 71.97H631.209V61.4953H638V71.97Z" fill="white"/>
<path d="M64.7977 180.671H48.7093V108.801H64.6932V118.073H56.9363V137.469H63.9358V146.189H56.9363V171.449H64.7977V180.671Z" fill="white"/>
<path d="M93.5531 180.671H86.1357V134.161C86.1357 132.39 85.7092 131.505 84.856 131.505C83.9854 131.505 83.5501 132.357 83.5501 134.061V180.671H76.1327V134.061C76.1327 132.29 75.7061 131.404 74.853 131.404C73.9824 131.404 73.5471 132.256 73.5471 133.961V180.671H66.1297V122.483H73.5471V124.538C74.5744 122.901 76.1153 122.082 78.1699 122.082C79.8936 122.082 81.4607 123.402 82.871 126.042C84.1769 123.402 85.9616 122.082 88.2252 122.082C89.5136 122.082 90.7237 122.834 91.8555 124.338C92.9873 125.808 93.5531 127.863 93.5531 130.502V180.671Z" fill="white"/>
<path d="M102.668 179.318V193H95.2508V122.483H100.866L101.493 124.839C102.712 123.001 104.157 122.082 105.828 122.082C107.517 122.082 109.076 122.901 110.503 124.538C111.949 126.175 112.671 128.531 112.671 131.605V173.404C112.671 175.843 112.149 177.797 111.104 179.268C110.059 180.738 108.788 181.473 107.291 181.473C105.219 181.473 103.678 180.754 102.668 179.318ZM105.254 169.795V133.76C105.254 131.989 104.827 131.104 103.974 131.104C103.103 131.104 102.668 131.989 102.668 133.76V169.895C102.668 171.599 103.103 172.451 103.974 172.451C104.827 172.451 105.254 171.566 105.254 169.795Z" fill="white"/>
<path d="M114.186 169.194V134.361C114.186 126.175 117.137 122.082 123.04 122.082C125.321 122.082 127.323 123.035 129.047 124.939C130.788 126.844 131.659 129.817 131.659 133.86V169.695C131.659 177.547 128.786 181.473 123.04 181.473C117.137 181.473 114.186 177.38 114.186 169.194ZM124.215 169.595V133.961C124.215 132.056 123.789 131.104 122.935 131.104C122.065 131.104 121.63 132.056 121.63 133.961V169.595C121.63 171.566 122.065 172.552 122.935 172.552C123.789 172.552 124.215 171.566 124.215 169.595Z" fill="white"/>
<path d="M164.123 122.483L158.925 180.671H150.751L148.426 156.865L146.311 180.671H137.744L132.547 122.483H139.729L142.289 154.108L144.587 122.483H152.083L154.381 154.108L156.94 122.483H164.123Z" fill="white"/>
<path d="M182.588 156.013H172.585V169.595C172.585 171.566 173.02 172.552 173.891 172.552C174.744 172.552 175.171 171.566 175.171 169.595V157.867H182.588V169.695C182.588 177.547 179.671 181.473 173.839 181.473C168.058 181.473 165.168 177.38 165.168 169.194V134.361C165.168 126.175 168.058 122.082 173.839 122.082C179.671 122.082 182.588 126.008 182.588 133.86V156.013ZM175.171 147.292V133.961C175.171 132.056 174.744 131.104 173.891 131.104C173.02 131.104 172.585 132.056 172.585 133.961V147.292H175.171Z" fill="white"/>
<path d="M201.915 146.59H194.471V133.961C194.471 132.19 194.045 131.304 193.192 131.304C192.338 131.304 191.912 132.156 191.912 133.86V180.671H184.468V122.483H191.912V124.438C192.904 122.868 194.437 122.082 196.509 122.082C197.989 122.082 199.26 122.851 200.322 124.388C201.384 125.891 201.915 127.879 201.915 130.352V146.59Z" fill="white"/>
<path d="M210.664 119.276H203.221V108.801H210.664V119.276ZM210.664 180.671H203.221V122.483H210.664V180.671Z" fill="white"/>
<path d="M229.652 180.671H222.208V133.961C222.208 132.19 221.782 131.304 220.929 131.304C220.075 131.304 219.649 132.156 219.649 133.86V180.671H212.205V122.483H219.649V124.438C220.641 122.868 222.173 122.082 224.245 122.082C225.586 122.082 226.822 122.784 227.954 124.187C229.086 125.591 229.652 127.646 229.652 130.352V180.671Z" fill="white"/>
<path d="M232.603 193V184.58H238.636C240.395 184.58 241.274 182.826 241.274 179.318C240.299 180.754 238.767 181.473 236.677 181.473C235.215 181.473 233.944 180.738 232.864 179.268C231.802 177.764 231.271 175.809 231.271 173.404V131.605C231.271 125.257 233.247 122.082 237.2 122.082C238.244 122.082 239.62 122.934 241.326 124.638L242.293 122.483H248.691V179.869C248.691 183.645 248.3 186.769 247.516 189.241C246.75 191.747 244.347 193 240.308 193H232.603ZM241.274 170.296V133.76C241.274 131.989 240.848 131.104 239.994 131.104C239.124 131.104 238.688 131.989 238.688 133.76V170.196C238.688 171.967 239.124 172.852 239.994 172.852C240.848 172.852 241.274 172 241.274 170.296Z" fill="white"/>
<path d="M259.896 180.671V108.801H270.134C272.363 108.801 274.348 109.97 276.089 112.309C277.83 114.615 278.701 118.173 278.701 122.985V166.487C278.701 170.965 277.882 174.456 276.246 176.962C274.626 179.435 272.606 180.671 270.186 180.671H259.896ZM270.421 167.64V121.832C270.421 119.326 269.655 118.073 268.123 118.073V171.449C269.655 171.449 270.421 170.179 270.421 167.64Z" fill="white"/>
<path d="M287.659 119.276H280.215V108.801H287.659V119.276ZM287.659 180.671H280.215V122.483H287.659V180.671Z" fill="white"/>
<path d="M290.532 193V184.58H296.565C298.324 184.58 299.203 182.826 299.203 179.318C298.228 180.754 296.696 181.473 294.606 181.473C293.144 181.473 291.873 180.738 290.793 179.268C289.731 177.764 289.2 175.809 289.2 173.404V131.605C289.2 125.257 291.176 122.082 295.129 122.082C296.173 122.082 297.549 122.934 299.255 124.638L300.221 122.483H306.62V179.869C306.62 183.645 306.229 186.769 305.445 189.241C304.679 191.747 302.276 193 298.237 193H290.532ZM299.203 170.296V133.76C299.203 131.989 298.776 131.104 297.923 131.104C297.053 131.104 296.617 131.989 296.617 133.76V170.196C296.617 171.967 297.053 172.852 297.923 172.852C298.776 172.852 299.203 172 299.203 170.296Z" fill="white"/>
<path d="M315.605 119.276H308.161V108.801H315.605V119.276ZM315.605 180.671H308.161V122.483H315.605V180.671Z" fill="white"/>
<path d="M331.902 180.671H327.201C323.84 180.671 321.829 179.702 321.168 177.764C320.506 175.826 320.175 172.101 320.175 166.588V131.104H316.858V122.483H320.175V110.756H327.619V122.483H331.641V131.104H327.619V166.487C327.619 168.191 327.88 169.344 328.402 169.946C328.942 170.514 330.109 170.798 331.902 170.798V180.671Z" fill="white"/>
<path d="M350.863 180.671H344.282V178.416C343.725 180.454 342.131 181.473 339.502 181.473C335.445 181.473 333.417 178.432 333.417 172.351V160.674C333.417 158.067 333.904 155.795 334.879 153.858C335.872 151.92 337.857 149.497 340.834 146.59C342.558 144.92 343.42 143.583 343.42 142.581V133.961C343.42 132.056 342.993 131.104 342.14 131.104C341.165 131.104 340.678 133.426 340.678 138.07C340.678 138.906 340.704 140.142 340.756 141.779C340.826 143.416 340.86 144.652 340.86 145.488H333.678V133.86C333.678 126.008 336.638 122.082 342.558 122.082C348.095 122.082 350.863 126.175 350.863 134.361V180.671ZM343.42 169.795V154.81C341.714 155.612 340.86 157.082 340.86 159.22V169.795C340.86 171.566 341.304 172.451 342.192 172.451C343.011 172.451 343.42 171.566 343.42 169.795Z" fill="white"/>
<path d="M360.135 180.671H352.692V108.801H360.135V180.671Z" fill="white"/>
<path d="M387.559 180.671H371.47V108.801H387.454V118.073H379.697V137.469H386.697V146.189H379.697V171.449H387.559V180.671Z" fill="white"/>
<path d="M408.766 180.671H400.565L398.006 164.884L395.603 180.671H388.159L393.984 149.898L388.316 122.483H396.177L398.711 137.569L400.722 122.483H407.8L402.811 150.6L408.766 180.671Z" fill="white"/>
<path d="M417.176 179.318V193H409.759V122.483H415.374L416.001 124.839C417.219 123.001 418.665 122.082 420.336 122.082C422.025 122.082 423.583 122.901 425.011 124.538C426.456 126.175 427.179 128.531 427.179 131.605V173.404C427.179 175.843 426.657 177.797 425.612 179.268C424.567 180.738 423.296 181.473 421.799 181.473C419.727 181.473 418.186 180.754 417.176 179.318ZM419.762 169.795V133.76C419.762 131.989 419.335 131.104 418.482 131.104C417.611 131.104 417.176 131.989 417.176 133.76V169.895C417.176 171.599 417.611 172.451 418.482 172.451C419.335 172.451 419.762 171.566 419.762 169.795Z" fill="white"/>
<path d="M446.271 156.013H436.268V169.595C436.268 171.566 436.703 172.552 437.574 172.552C438.427 172.552 438.854 171.566 438.854 169.595V157.867H446.271V169.695C446.271 177.547 443.354 181.473 437.522 181.473C431.741 181.473 428.85 177.38 428.85 169.194V134.361C428.85 126.175 431.741 122.082 437.522 122.082C443.354 122.082 446.271 126.008 446.271 133.86V156.013ZM438.854 147.292V133.961C438.854 132.056 438.427 131.104 437.574 131.104C436.703 131.104 436.268 132.056 436.268 133.961V147.292H438.854Z" fill="white"/>
<path d="M465.598 146.59H458.154V133.961C458.154 132.19 457.728 131.304 456.875 131.304C456.021 131.304 455.595 132.156 455.595 133.86V180.671H448.151V122.483H455.595V124.438C456.587 122.868 458.12 122.082 460.192 122.082C461.672 122.082 462.943 122.851 464.005 124.388C465.067 125.891 465.598 127.879 465.598 130.352V146.59Z" fill="white"/>
<path d="M474.347 119.276H466.904V108.801H474.347V119.276ZM474.347 180.671H466.904V122.483H474.347V180.671Z" fill="white"/>
<path d="M493.335 156.013H483.332V169.595C483.332 171.566 483.767 172.552 484.638 172.552C485.491 172.552 485.917 171.566 485.917 169.595V157.867H493.335V169.695C493.335 177.547 490.418 181.473 484.585 181.473C478.805 181.473 475.914 177.38 475.914 169.194V134.361C475.914 126.175 478.805 122.082 484.585 122.082C490.418 122.082 493.335 126.008 493.335 133.86V156.013ZM485.917 147.292V133.961C485.917 132.056 485.491 131.104 484.638 131.104C483.767 131.104 483.332 132.056 483.332 133.961V147.292H485.917Z" fill="white"/>
<path d="M512.453 180.671H505.009V133.961C505.009 132.19 504.583 131.304 503.73 131.304C502.876 131.304 502.45 132.156 502.45 133.86V180.671H495.006V122.483H502.45V124.438C503.442 122.868 504.975 122.082 507.046 122.082C508.387 122.082 509.623 122.784 510.755 124.187C511.887 125.591 512.453 127.646 512.453 130.352V180.671Z" fill="white"/>
<path d="M531.493 148.244H524.075V133.961C524.075 132.056 523.649 131.104 522.795 131.104C521.925 131.104 521.49 132.056 521.49 133.961V169.595C521.49 171.566 521.925 172.552 522.795 172.552C523.649 172.552 524.075 171.566 524.075 169.595V155.511H531.493V169.695C531.493 177.547 528.628 181.473 522.9 181.473C517.015 181.473 514.072 177.38 514.072 169.194V134.361C514.072 126.175 517.015 122.082 522.9 122.082C528.628 122.082 531.493 126.008 531.493 133.86V148.244Z" fill="white"/>
<path d="M550.584 156.013H540.581V169.595C540.581 171.566 541.017 172.552 541.887 172.552C542.74 172.552 543.167 171.566 543.167 169.595V157.867H550.584V169.695C550.584 177.547 547.668 181.473 541.835 181.473C536.054 181.473 533.164 177.38 533.164 169.194V134.361C533.164 126.175 536.054 122.082 541.835 122.082C547.668 122.082 550.584 126.008 550.584 133.86V156.013ZM543.167 147.292V133.961C543.167 132.056 542.74 131.104 541.887 131.104C541.017 131.104 540.581 132.056 540.581 133.961V147.292H543.167Z" fill="white"/>
<path d="M552.256 157.266H559.673V169.595C559.673 171.566 560.091 172.552 560.927 172.552C561.763 172.552 562.181 170.664 562.181 166.888C562.181 161.977 561.667 158.803 560.64 157.366C556.757 153.457 554.415 150.733 553.614 149.197C552.813 147.626 552.413 145.287 552.413 142.18V134.361C552.413 126.175 555.303 122.082 561.084 122.082C566.708 122.082 569.52 126.008 569.52 133.86V145.337H562.259L562.416 138.371C562.416 133.526 561.954 131.104 561.032 131.104C560.109 131.104 559.647 132.624 559.647 135.665C559.647 138.805 559.847 141.178 560.248 142.781C560.666 144.385 562.947 147.142 567.091 151.051C568.815 153.423 569.676 156.564 569.676 160.473V169.194C569.676 177.38 566.743 181.473 560.875 181.473C555.129 181.473 552.256 177.547 552.256 169.695V157.266Z" fill="white"/>
<path d="M589.839 108.801L582.265 133.76L579.105 132.758L582.579 108.801H589.839ZM581.717 108.801L574.116 133.76L570.956 132.758L574.456 108.801H581.717Z" fill="white"/>
</svg>
