<svg width="564" height="257" viewBox="0 0 564 257" fill="none" xmlns="http://www.w3.org/2000/svg">
<path d="M0 55.1998H31.7722C42.6714 55.1998 50.3831 58.1951 54.9073 64.1858C59.4315 70.1765 61.6936 79.4193 61.6936 91.9141V118.615C61.6936 127.173 60.8196 133.934 59.0716 138.898C57.3236 143.862 54.496 147.542 50.5888 149.938V150.708C53.5706 152.078 56.1412 154.731 58.3005 158.667C60.4597 162.433 61.5394 168.424 61.5394 176.639V233.38C61.5394 236.289 61.9507 238.429 62.7732 239.798C63.5958 241.168 64.6755 241.852 66.0122 241.852C67.5545 241.852 68.8912 240.568 70.0222 238.001L72.49 243.136C71.3589 247.073 69.5081 250.41 66.9376 253.149C64.367 255.716 60.6654 257 55.8327 257C53.4678 257 51.2057 256.401 49.0464 255.203C46.99 254.176 45.1392 252.464 43.494 250.068C41.8488 247.501 40.5635 244.334 39.6381 240.568C38.7127 236.632 38.25 231.925 38.25 226.448V170.734C38.25 165.771 37.4275 162.347 35.7823 160.465C34.24 158.582 31.7722 157.64 28.3791 157.64H23.2893V254.433H0V55.1998ZM23.2893 69.3207V144.803H28.3791C31.7722 144.803 34.2914 143.605 35.9365 141.209C37.5817 138.813 38.4043 134.191 38.4043 127.345V87.036C38.4043 80.1895 37.5817 75.5681 35.9365 73.1718C34.2914 70.6044 31.7722 69.3207 28.3791 69.3207H23.2893Z" fill="white"/>
<path d="M94.9226 52.6324C100.783 52.6324 105.616 53.4026 109.421 54.9431C113.225 56.3124 116.31 58.8798 118.675 62.6454C120.114 64.8705 121.297 67.6946 122.222 71.1179C123.147 74.37 123.867 78.4779 124.381 83.4416C124.998 88.4053 125.41 94.3959 125.615 101.414C125.924 108.431 126.078 116.818 126.078 126.574V135.047C126.078 142.749 126.026 148.826 125.924 153.276C125.924 157.726 125.821 161.492 125.615 164.572H86.9024V198.976C86.9024 207.705 87.1595 214.809 87.6736 220.286C88.2905 225.763 89.2159 230.042 90.4498 233.123C91.6837 236.204 93.226 238.343 95.0768 239.541C96.9276 240.74 99.1383 241.339 101.709 241.339C107.261 241.339 111.22 239.627 113.585 236.204C115.95 232.781 117.132 226.533 117.132 217.462C117.132 216.092 117.132 214.723 117.132 213.354C117.132 211.813 117.029 210.444 116.824 209.246H123.456C123.559 210.273 123.61 211.3 123.61 212.327C123.61 213.354 123.61 214.381 123.61 215.408C123.61 222.083 123.199 227.988 122.376 233.123C121.554 238.258 120.063 242.622 117.903 246.217C115.847 249.64 113.019 252.293 109.421 254.176C105.925 256.059 101.503 257 96.1565 257C90.1928 257 85.1544 255.887 81.0415 253.662C76.9286 251.437 73.5869 247.757 71.0163 242.622C68.5486 237.488 66.7492 230.641 65.6181 222.083C64.4871 213.525 63.9216 202.913 63.9216 190.247V126.574C63.9216 116.818 64.0244 108.431 64.23 101.414C64.5385 94.3959 64.9498 88.4053 65.4639 83.4416C66.0808 78.4779 66.852 74.37 67.7774 71.1179C68.7028 67.6946 69.8853 64.8705 71.3248 62.6454C73.6897 58.8798 76.7744 56.3124 80.5788 54.9431C84.3833 53.4026 89.1645 52.6324 94.9226 52.6324ZM86.9024 150.708H103.868V89.0899C103.868 82.2434 103.508 77.4509 102.789 74.7123C102.069 71.8025 101.298 69.8342 100.475 68.8072C99.9609 67.9514 99.2412 67.3523 98.3158 67.01C97.4932 66.4965 96.3621 66.2398 94.9226 66.2398C93.4831 66.2398 92.352 66.4965 91.5294 67.01C90.8097 67.3523 90.1928 67.9514 89.6786 68.8072C88.8561 69.8342 88.1877 71.8025 87.6736 74.7123C87.1595 77.4509 86.9024 82.329 86.9024 89.3467V150.708Z" fill="white"/>
<path d="M164.641 78.8202C164.641 75.5681 163.562 73.9421 161.402 73.9421C159.86 73.9421 158.009 74.8835 155.85 76.7662C153.691 78.4779 151.583 80.703 149.526 83.4416V254.433H126.237V55.1998H149.526V71.3746C152.508 66.7533 155.901 62.4742 159.706 58.5375C163.613 54.6007 168.137 52.6324 173.278 52.6324C177.597 52.6324 181.093 54.6863 183.766 58.7942C186.542 62.9021 187.931 68.7216 187.931 76.2528V254.433H164.641V78.8202Z" fill="white"/>
<path d="M219.352 52.6324C225.213 52.6324 230.046 53.4026 233.85 54.9431C237.655 56.3124 240.739 58.8798 243.104 62.6454C244.544 64.8705 245.726 67.6946 246.652 71.1179C247.577 74.37 248.297 78.4779 248.811 83.4416C249.428 88.4053 249.839 94.3959 250.045 101.414C250.353 108.431 250.507 116.818 250.507 126.574V135.047C250.507 142.749 250.456 148.826 250.353 153.276C250.353 157.726 250.25 161.492 250.045 164.572H211.332V198.976C211.332 207.705 211.589 214.809 212.103 220.286C212.72 225.763 213.645 230.042 214.879 233.123C216.113 236.204 217.656 238.343 219.506 239.541C221.357 240.74 223.568 241.339 226.138 241.339C231.691 241.339 235.649 239.627 238.014 236.204C240.379 232.781 241.562 226.533 241.562 217.462C241.562 216.092 241.562 214.723 241.562 213.354C241.562 211.813 241.459 210.444 241.253 209.246H247.885C247.988 210.273 248.04 211.3 248.04 212.327C248.04 213.354 248.04 214.381 248.04 215.408C248.04 222.083 247.628 227.988 246.806 233.123C245.983 238.258 244.492 242.622 242.333 246.217C240.277 249.64 237.449 252.293 233.85 254.176C230.354 256.059 225.933 257 220.586 257C214.622 257 209.584 255.887 205.471 253.662C201.358 251.437 198.016 247.757 195.446 242.622C192.978 237.488 191.179 230.641 190.048 222.083C188.917 213.525 188.351 202.913 188.351 190.247V126.574C188.351 116.818 188.454 108.431 188.66 101.414C188.968 94.3959 189.379 88.4053 189.893 83.4416C190.51 78.4779 191.282 74.37 192.207 71.1179C193.132 67.6946 194.315 64.8705 195.754 62.6454C198.119 58.8798 201.204 56.3124 205.008 54.9431C208.813 53.4026 213.594 52.6324 219.352 52.6324ZM211.332 150.708H228.298V89.0899C228.298 82.2434 227.938 77.4509 227.218 74.7123C226.498 71.8025 225.727 69.8342 224.905 68.8072C224.39 67.9514 223.671 67.3523 222.745 67.01C221.923 66.4965 220.792 66.2398 219.352 66.2398C217.913 66.2398 216.782 66.4965 215.959 67.01C215.239 67.3523 214.622 67.9514 214.108 68.8072C213.286 69.8342 212.617 71.8025 212.103 74.7123C211.589 77.4509 211.332 82.329 211.332 89.3467V150.708ZM201.307 44.9301C206.242 40.3087 210.561 35.4306 214.262 30.2957C217.964 24.9897 221.254 20.1116 224.133 15.6613C227.012 11.04 229.583 7.2744 231.845 4.36464C234.21 1.45488 236.472 0 238.631 0C240.791 0 242.693 1.28372 244.338 3.85115C246.086 6.24742 246.96 9.58508 246.96 13.8641C246.96 18.6567 245.88 22.2511 243.721 24.6474C241.665 27.0436 238.734 29.2687 234.93 31.3227C231.125 33.3766 226.55 35.8585 221.203 38.7682C215.856 41.5068 209.944 45.7003 203.466 51.3487L201.307 44.9301Z" fill="white"/>
<path d="M285.544 55.1998H317.779C322.817 55.1998 327.033 56.0556 330.426 57.7672C333.819 59.4789 336.492 61.9607 338.446 65.2128C340.502 68.2937 341.942 71.9737 342.765 76.2528C343.587 80.5318 343.998 85.2388 343.998 90.3736V110.143C343.998 120.07 343.176 127.858 341.531 133.507C339.988 139.155 336.647 143.263 331.506 145.83V146.857C337.366 149.425 341.428 154.303 343.69 161.492C346.055 168.68 347.237 178.693 347.237 191.53V202.827C347.237 212.583 346.672 220.799 345.541 227.475C344.513 234.15 342.867 239.456 340.605 243.393C338.446 247.329 335.618 250.154 332.122 251.865C328.626 253.577 324.462 254.433 319.629 254.433H285.544V55.1998ZM308.833 153.019V240.312H313.923C316.082 240.312 317.779 240.141 319.013 239.798C320.349 239.285 321.378 238.429 322.097 237.231C322.817 235.861 323.28 234.064 323.485 231.839C323.794 229.443 323.948 226.362 323.948 222.596V170.734C323.948 166.969 323.794 163.973 323.485 161.748C323.177 159.352 322.663 157.555 321.943 156.357C321.223 154.987 320.195 154.132 318.858 153.789C317.522 153.276 315.876 153.019 313.923 153.019H308.833ZM323.64 87.036C323.64 83.0992 323.485 80.0183 323.177 77.7932C322.971 75.3969 322.509 73.5997 321.789 72.4016C321.172 71.0323 320.195 70.1765 318.858 69.8342C317.624 69.4918 315.979 69.3207 313.923 69.3207H308.833V140.439H313.923C315.876 140.439 317.47 140.267 318.704 139.925C320.041 139.412 321.069 138.556 321.789 137.358C322.509 135.988 322.971 134.191 323.177 131.966C323.485 129.57 323.64 126.489 323.64 122.723V87.036Z" fill="white"/>
<path d="M384.093 82.1579C384.093 76.1672 383.065 71.8881 381.009 69.3207C378.952 66.5821 376.433 65.2128 373.451 65.2128C371.498 65.2128 369.492 65.7263 367.436 66.7533C365.38 67.7802 363.375 69.4063 361.421 71.6314C362.758 71.8025 364.197 72.316 365.739 73.1718C367.282 74.0276 368.721 75.3114 370.058 77.023C371.395 78.7346 372.474 80.9597 373.297 83.6983C374.222 86.4369 374.685 89.689 374.685 93.4546C374.685 96.7066 374.274 99.7876 373.451 102.697C372.731 105.436 371.755 107.832 370.521 109.886C369.287 111.94 367.847 113.566 366.202 114.764C364.557 115.962 362.86 116.561 361.112 116.561C357 116.561 353.606 114.336 350.933 109.886C348.26 105.436 346.923 100.215 346.923 94.2248C346.923 87.036 347.951 80.7886 350.008 75.4825C352.064 70.1765 354.686 65.8974 357.874 62.6454C361.164 59.2221 364.865 56.7403 368.978 55.1998C373.091 53.4882 377.153 52.6324 381.163 52.6324C384.659 52.6324 387.949 53.317 391.034 54.6863C394.221 55.8845 396.998 57.8528 399.362 60.5914C401.83 63.1588 403.784 66.4965 405.223 70.6044C406.663 74.5411 407.383 79.2481 407.383 84.7253V233.38C407.383 236.289 407.794 238.429 408.617 239.798C409.439 241.168 410.519 241.852 411.855 241.852C413.398 241.852 414.734 240.568 415.866 238.001L418.333 243.136C417.202 247.244 415.3 250.581 412.627 253.149C410.056 255.716 407.126 257 403.835 257C401.779 257 399.877 256.658 398.129 255.973C396.381 255.46 394.735 254.433 393.193 252.892C391.754 251.352 390.417 249.298 389.183 246.73C388.052 243.992 387.075 240.483 386.253 236.204C383.888 243.221 381.009 248.442 377.615 251.865C374.325 255.288 370.212 257 365.277 257C362.501 257 359.93 256.401 357.565 255.203C355.2 254.176 353.092 252.036 351.241 248.784C349.493 245.532 348.105 240.911 347.077 234.92C346.152 228.758 345.689 220.799 345.689 211.043V193.071C345.689 187.936 345.792 183.058 345.998 178.437C346.306 173.815 346.82 169.451 347.54 165.343C348.362 161.235 349.442 157.384 350.779 153.789C352.218 150.195 354.12 146.772 356.485 143.519C360.393 138.042 364.506 133.849 368.824 130.939C373.143 128.029 378.232 125.462 384.093 123.237V82.1579ZM384.093 137.101C380.7 138.299 377.975 139.84 375.919 141.722C373.965 143.605 372.474 146.087 371.446 149.168C370.418 152.078 369.75 155.758 369.441 160.208C369.133 164.487 368.978 169.622 368.978 175.612V213.867C368.978 221.912 369.544 227.218 370.675 229.785C371.806 232.181 373.708 233.38 376.382 233.38C379.878 233.38 382.448 230.299 384.093 224.137V137.101Z" fill="white"/>
<path d="M414.642 55.1998H437.932V254.433H414.642V55.1998Z" fill="white"/>
<path d="M478.134 78.8202C478.134 75.5681 477.054 73.9421 474.895 73.9421C473.353 73.9421 471.502 74.8835 469.342 76.7662C467.183 78.4779 465.075 80.703 463.019 83.4416V254.433H439.73V55.1998H463.019V71.3746C466.001 66.7533 469.394 62.4742 473.198 58.5375C477.106 54.6007 481.63 52.6324 486.771 52.6324C491.09 52.6324 494.585 54.6863 497.259 58.7942C500.035 62.9021 501.423 68.7216 501.423 76.2528V254.433H478.134V78.8202Z" fill="white"/>
<path d="M532.845 52.6324C538.706 52.6324 543.538 53.4026 547.343 54.9431C551.147 56.3124 554.232 58.8798 556.597 62.6454C558.036 64.8705 559.219 67.6946 560.144 71.1179C561.07 74.37 561.789 78.4779 562.303 83.4416C562.92 88.4053 563.332 94.3959 563.537 101.414C563.846 108.431 564 116.818 564 126.574V135.047C564 142.749 563.949 148.826 563.846 153.276C563.846 157.726 563.743 161.492 563.537 164.572H524.825V198.976C524.825 207.705 525.082 214.809 525.596 220.286C526.213 225.763 527.138 230.042 528.372 233.123C529.606 236.204 531.148 238.343 532.999 239.541C534.85 240.74 537.06 241.339 539.631 241.339C545.183 241.339 549.142 239.627 551.507 236.204C553.872 232.781 555.055 226.533 555.055 217.462C555.055 216.092 555.055 214.723 555.055 213.354C555.055 211.813 554.952 210.444 554.746 209.246H561.378C561.481 210.273 561.532 211.3 561.532 212.327C561.532 213.354 561.532 214.381 561.532 215.408C561.532 222.083 561.121 227.988 560.298 233.123C559.476 238.258 557.985 242.622 555.826 246.217C553.769 249.64 550.942 252.293 547.343 254.176C543.847 256.059 539.425 257 534.079 257C528.115 257 523.077 255.887 518.964 253.662C514.851 251.437 511.509 247.757 508.939 242.622C506.471 237.488 504.671 230.641 503.54 222.083C502.409 213.525 501.844 202.913 501.844 190.247V126.574C501.844 116.818 501.947 108.431 502.152 101.414C502.461 94.3959 502.872 88.4053 503.386 83.4416C504.003 78.4779 504.774 74.37 505.7 71.1179C506.625 67.6946 507.807 64.8705 509.247 62.6454C511.612 58.8798 514.697 56.3124 518.501 54.9431C522.305 53.4026 527.087 52.6324 532.845 52.6324ZM524.825 150.708H541.79V89.0899C541.79 82.2434 541.43 77.4509 540.711 74.7123C539.991 71.8025 539.22 69.8342 538.397 68.8072C537.883 67.9514 537.163 67.3523 536.238 67.01C535.415 66.4965 534.284 66.2398 532.845 66.2398C531.405 66.2398 530.274 66.4965 529.452 67.01C528.732 67.3523 528.115 67.9514 527.601 68.8072C526.778 69.8342 526.11 71.8025 525.596 74.7123C525.082 77.4509 524.825 82.329 524.825 89.3467V150.708Z" fill="white"/>
</svg>
