<svg width="259" height="59" viewBox="0 0 259 59" fill="none" xmlns="http://www.w3.org/2000/svg">
<path d="M29.9074 0.525342L25.5947 58.4747H16.8522L14.2037 26.5096L11.7192 58.4747H4.17204L0 0.525342H6.63307L8.50814 27.2774L11.0395 0.525342H19.3601L21.3758 27.2774L23.8603 0.525342H29.9074Z" fill="black"/>
<path d="M45.7396 58.4747H31.3015V0.525342H45.6458V8.00137H38.6846V23.6404H44.9661V30.6719H38.6846V51.039H45.7396V58.4747Z" fill="black"/>
<path d="M47.3915 58.4747V0.525342H56.0872C58.1654 0.525342 59.9701 1.34703 61.5014 2.99041C63.0327 4.60685 63.7984 7.20662 63.7984 10.7897V18.8315C63.7984 22.8995 62.3608 25.7687 59.4857 27.439C62.5171 28.7322 64.0328 31.5205 64.0328 35.8041V47.0384C64.0328 50.8639 63.3062 53.7331 61.853 55.6459C60.4155 57.5317 58.6966 58.4747 56.6966 58.4747H47.3915ZM56.8372 20.8925V11.0322C56.8372 9.01164 56.1497 8.00137 54.7746 8.00137V23.9637C56.1497 23.9637 56.8372 22.94 56.8372 20.8925ZM56.8372 47.9678V33.2986C56.8372 31.2781 56.1497 30.2678 54.7746 30.2678V51.039C56.1497 51.039 56.8372 50.0153 56.8372 47.9678Z" fill="black"/>
<path d="M75.0713 58.4747V0.525342H84.2592C86.2593 0.525342 88.0406 1.46826 89.6031 3.35411C91.1657 5.21301 91.947 8.08219 91.947 11.9616V47.0384C91.947 50.6484 91.2126 53.4637 89.7438 55.4842C88.2906 57.4779 86.478 58.4747 84.3061 58.4747H75.0713ZM84.517 47.9678V11.0322C84.517 9.01164 83.8295 8.00137 82.4544 8.00137V51.039C83.8295 51.039 84.517 50.0153 84.517 47.9678Z" fill="black"/>
<path d="M108.412 58.4747H93.9739V0.525342H108.318V8.00137H101.357V23.6404H107.639V30.6719H101.357V51.039H108.412V58.4747Z" fill="black"/>
<path d="M128.955 0.525342L124.432 58.4747H113.978L109.455 0.525342H116.65L119.205 41.0171L121.736 0.525342H128.955Z" fill="black"/>
<path d="M144.858 58.4747H130.42V0.525342H144.764V8.00137H137.803V23.6404H144.084V30.6719H137.803V51.039H144.858V58.4747Z" fill="black"/>
<path d="M160.479 58.4747H146.627V0.525342H154.01V51.039H160.479V58.4747Z" fill="black"/>
<path d="M162.061 48.574V11.2747C162.061 3.75822 164.889 0 170.545 0C176.124 0 178.913 3.73128 178.913 11.1938V48.4932C178.913 51.8607 178.132 54.4605 176.569 56.2925C175.022 58.0975 172.999 59 170.498 59C164.873 59 162.061 55.5247 162.061 48.574ZM171.694 49.1801V9.69863C171.694 8.54018 171.295 7.96096 170.498 7.96096C169.67 7.96096 169.256 8.54018 169.256 9.69863V49.1801C169.256 50.3386 169.67 50.9178 170.498 50.9178C171.295 50.9178 171.694 50.3386 171.694 49.1801Z" fill="black"/>
<path d="M188.135 37.1377V58.4747H180.94V0.525342H188.698C191.776 0.525342 194.057 1.19886 195.542 2.54589C197.042 3.89292 197.792 6.64087 197.792 10.7897V26.8733C197.792 30.6719 197.183 33.366 195.964 34.9555C194.745 36.518 192.136 37.2454 188.135 37.1377ZM190.596 25.7822V11.8808C190.596 9.83333 189.776 8.80959 188.135 8.80959V28.8534C189.776 28.8534 190.596 27.8297 190.596 25.7822Z" fill="black"/>
<path d="M214.046 58.4747H199.608V0.525342H213.952V8.00137H206.991V23.6404H213.273V30.6719H206.991V51.039H214.046V58.4747Z" fill="black"/>
<path d="M241.457 58.4747H234.871V25.9438L231.027 58.4747H225.941L221.534 25.9438V58.4747H215.768V0.525342H225.261L228.636 30.5911L231.566 0.525342H241.457V58.4747Z" fill="black"/>
<path d="M259 8.08219H254.875V58.4747H247.492V8.08219H243.367V0.525342H259V8.08219Z" fill="black"/>
</svg>
