<svg width="76" height="28" viewBox="0 0 76 28" fill="none" xmlns="http://www.w3.org/2000/svg">
<path d="M6.74092 4.005C8.32758 2.72167 9.43592 2.08 10.0659 2.08C10.7193 2.08 11.7459 2.69833 13.1459 3.935C14.5693 5.14833 15.4559 6.01166 15.8059 6.525C16.1559 7.015 16.3309 7.83167 16.3309 8.975C16.3309 10.1183 16.1559 10.9817 15.8059 11.565C15.4559 12.125 14.8143 12.8483 13.8809 13.735C15.3509 14.9483 16.3893 15.9633 16.9959 16.78C17.2526 17.2 17.3809 17.9933 17.3809 19.16C17.3809 20.3033 17.2526 21.05 16.9959 21.4C16.5759 22.31 15.5609 23.4767 13.9509 24.9C12.3409 26.3 11.0693 27 10.1359 27H2.89092V12.02C2.89092 10.13 2.75092 8.8 2.47092 8.03C2.21425 7.26 1.65425 6.35 0.790918 5.3L5.41092 2.08C5.97092 2.54667 6.41425 3.18833 6.74092 4.005ZM7.72092 16.36V22.765H10.1359C10.4393 22.765 10.8126 22.5317 11.2559 22.065C11.6993 21.575 12.0143 21.155 12.2009 20.805C12.4109 20.4317 12.5159 19.685 12.5159 18.565C12.5159 17.795 11.9326 17.06 10.7659 16.36H7.72092ZM7.72092 9.99V12.475H9.50592C9.76258 12.475 10.0776 12.2533 10.4509 11.81C10.8476 11.3433 11.1159 10.935 11.2559 10.585C11.3959 10.235 11.4659 9.815 11.4659 9.325C11.4659 8.835 11.2326 8.28667 10.7659 7.68C10.2993 7.05 9.86758 6.735 9.47092 6.735C9.07425 6.735 8.45592 6.88666 7.61592 7.19C7.68592 8.1 7.72092 9.03333 7.72092 9.99ZM33.4872 8.135V22.485C33.6272 23.3017 34.1755 24.025 35.1322 24.655L31.9822 27.35C31.6789 27.14 31.3055 26.7667 30.8622 26.23C30.4189 25.6933 30.0455 25.145 29.7422 24.585C27.8055 26.475 26.4522 27.42 25.6822 27.42C25.1222 27.42 24.2122 26.8017 22.9522 25.565C21.7155 24.3283 20.9455 23.325 20.6422 22.555C20.3389 21.785 20.1872 20.1283 20.1872 17.585C20.1872 15.0183 20.3389 13.35 20.6422 12.58C20.9455 11.81 21.7155 10.8067 22.9522 9.57C24.2122 8.33333 25.1222 7.715 25.6822 7.715C26.4989 7.715 27.8172 8.555 29.6372 10.235L30.0572 8.135H33.4872ZM28.6222 13.49C28.4589 13.1867 28.1205 12.8833 27.6072 12.58C27.1172 12.2533 26.7439 12.09 26.4872 12.09C26.2305 12.09 25.9505 12.2417 25.6472 12.545C25.3672 12.8483 25.1805 13.1283 25.0872 13.385C24.7839 13.805 24.6322 15.205 24.6322 17.585C24.6322 19.9417 24.7839 21.33 25.0872 21.75C25.1805 21.9833 25.3672 22.2633 25.6472 22.59C25.9505 22.8933 26.2305 23.045 26.4872 23.045C26.7439 23.045 27.1172 22.8933 27.6072 22.59C28.1205 22.2633 28.4472 21.9717 28.5872 21.715C28.7505 21.4583 28.8439 20.0933 28.8672 17.62C28.8672 15.1467 28.7855 13.77 28.6222 13.49ZM37.046 8.135H41.666V20.245C41.666 21.435 41.806 22.3567 42.086 23.01C42.366 23.6633 42.8093 24.235 43.416 24.725L39.566 27.42C37.886 26.09 37.046 24.2 37.046 21.75V8.135ZM39.426 0.819999C39.6827 0.819999 40.2543 1.205 41.141 1.975C42.0277 2.72167 42.471 3.235 42.471 3.515C42.471 3.77167 42.016 4.285 41.106 5.055C40.2193 5.825 39.6477 6.21 39.391 6.21C39.1577 6.21 38.5977 5.83667 37.711 5.09C36.8243 4.32 36.381 3.80667 36.381 3.55C36.381 3.27 36.8243 2.745 37.711 1.975C38.621 1.205 39.1927 0.819999 39.426 0.819999ZM50.2998 27H45.6798V14.925C45.6798 13.735 45.5398 12.8133 45.2598 12.16C44.9798 11.5067 44.5365 10.935 43.9298 10.445L47.7798 7.75C48.6431 8.45 49.2848 9.255 49.7048 10.165C51.4315 8.53167 52.6448 7.715 53.3448 7.715C54.0681 7.715 55.1415 8.36833 56.5648 9.675C58.0115 10.9583 58.7348 12.23 58.7348 13.49V20.245C58.7348 21.435 58.8748 22.3567 59.1548 23.01C59.4348 23.6633 59.8781 24.235 60.4848 24.725L56.6348 27.42C54.9548 26.09 54.1148 24.2 54.1148 21.75V13.98C54.1148 13.5833 53.9048 13.175 53.4848 12.755C53.0648 12.3117 52.6681 12.09 52.2948 12.09C51.9448 12.09 51.2798 12.58 50.2998 13.56V27ZM75.1473 17.515V18.775H66.6773C66.6773 20.175 66.8523 21.2833 67.2023 22.1C67.319 22.38 67.529 22.6717 67.8323 22.975C68.1357 23.255 68.4507 23.395 68.7773 23.395C69.104 23.395 69.5123 23.115 70.0023 22.555C70.4923 21.995 70.8773 21.3183 71.1573 20.525L74.7623 23.08C74.1323 24.2467 73.164 25.2617 71.8573 26.125C70.574 26.9883 69.5357 27.42 68.7423 27.42C67.949 27.42 66.794 26.8017 65.2773 25.565C63.784 24.3283 62.874 23.3717 62.5473 22.695C62.2207 21.995 62.0573 20.2917 62.0573 17.585C62.0573 14.855 62.2207 13.1517 62.5473 12.475C62.874 11.775 63.784 10.8067 65.2773 9.57C66.794 8.33333 67.9023 7.715 68.6023 7.715C69.3023 7.715 70.399 8.33333 71.8923 9.57C73.409 10.8067 74.3307 11.775 74.6573 12.475C74.984 13.1517 75.1473 14.8317 75.1473 17.515ZM70.2823 13.14C70.119 12.8133 69.8507 12.4983 69.4773 12.195C69.1273 11.8917 68.789 11.74 68.4623 11.74C68.159 11.74 67.809 12.055 67.4123 12.685C67.0157 13.2917 66.7707 14.2133 66.6773 15.45H70.6673C70.5973 14.2133 70.469 13.4433 70.2823 13.14Z" fill="white"/>
</svg>
