<svg width="50" height="62" viewBox="0 0 50 62" fill="none" xmlns="http://www.w3.org/2000/svg">
<circle cx="25" cy="37" r="5" fill="white"/>
<path d="M50 37C50 50.8071 38.8071 62 25 62C11.1929 62 0 50.8071 0 37C0 23.1929 11.1929 12 25 12C38.8071 12 50 23.1929 50 37ZM15.3297 37C15.3297 42.3407 19.6593 46.6703 25 46.6703C30.3407 46.6703 34.6703 42.3407 34.6703 37C34.6703 31.6593 30.3407 27.3297 25 27.3297C19.6593 27.3297 15.3297 31.6593 15.3297 37Z" fill="#D9D9D9"/>
<path d="M1.73497 27.8491C4.01539 22.0514 8.37839 17.3141 13.9692 14.5652C19.56 11.8163 25.9758 11.2539 31.9596 12.9883C37.9434 14.7226 43.064 18.6287 46.3183 23.9413C49.5726 29.2538 50.726 35.5901 49.5526 41.7087C48.3792 47.8272 44.9635 53.2872 39.9747 57.0189C34.9859 60.7507 28.7835 62.4853 22.5827 61.8829C16.3818 61.2804 10.6293 58.3845 6.45205 53.7623C2.27485 49.1401 -0.0260159 43.1247 0.000221704 36.8947L7.98595 36.9283C7.96809 41.1683 9.53399 45.2621 12.3769 48.4079C15.2197 51.5536 19.1347 53.5245 23.3548 53.9345C27.575 54.3445 31.7961 53.164 35.1913 50.6243C38.5865 48.0846 40.9111 44.3687 41.7097 40.2046C42.5083 36.0405 41.7233 31.7282 39.5085 28.1126C37.2938 24.4971 33.8089 21.8387 29.7365 20.6584C25.6641 19.478 21.2977 19.8608 17.4928 21.7316C13.6879 23.6024 10.7185 26.8265 9.16656 30.7722L1.73497 27.8491Z" fill="white"/>
<path d="M0 0H6.5H12.5L13 37H0V0Z" fill="#D9D9D9"/>
<rect width="8" height="37" fill="white"/>
</svg>
