<svg width="30" height="45" viewBox="0 0 30 45" fill="none" xmlns="http://www.w3.org/2000/svg">
<path d="M0.0422578 31.0314C0.30006 34.4818 1.72699 37.7384 4.08431 40.2564C6.44164 42.7744 9.58636 44.401 12.9924 44.8641C16.3984 45.3272 19.859 44.5988 22.7954 42.8006C25.7317 41.0023 27.9656 38.2435 29.1234 34.9856C30.2811 31.7276 30.2924 28.1683 29.1554 24.9029C28.0185 21.6376 25.8022 18.8644 22.8773 17.0473C19.9525 15.2302 16.4965 14.4794 13.0876 14.9205C9.67876 15.3617 6.52375 16.968 4.15045 19.4707L11.613 26.6433C12.3539 25.862 13.3388 25.3605 14.403 25.2228C15.4672 25.0851 16.5461 25.3195 17.4591 25.8867C18.3722 26.454 19.0641 27.3197 19.419 28.3391C19.774 29.3585 19.7704 30.4696 19.409 31.4867C19.0476 32.5037 18.3502 33.365 17.4336 33.9264C16.5169 34.4877 15.4365 34.7151 14.3733 34.5706C13.31 34.426 12.3283 33.9182 11.5923 33.1321C10.8564 32.3461 10.411 31.3294 10.3305 30.2523L0.0422578 31.0314Z" fill="white"/>
<path d="M0 0.523804V0.523804C0.480221 0.208126 1.10513 0.220252 1.57274 0.55432L6.07584 3.77139L11.4544 8.2761L11.5541 34.2568L0 31.1149V16.9712V0.523804Z" fill="white"/>
</svg>
